<svg id="_30_Min_live" data-name="30 Min live" xmlns="http://www.w3.org/2000/svg" width="41.06" height="25.566" viewBox="0 0 41.06 25.566">
  <path id="Path_491" data-name="Path 491" d="M113.1,163a1.283,1.283,0,0,0-1.08.539,20.531,20.531,0,0,0,.01,24.486,1.283,1.283,0,0,0,2.092-1.487l-.037-.05a17.973,17.973,0,0,1,0-21.424A1.283,1.283,0,0,0,113.1,163Zm30.768,0a1.283,1.283,0,0,0-.942,2.065,17.952,17.952,0,0,1-.01,21.424,1.287,1.287,0,0,0,2.062,1.54l0,0a20.511,20.511,0,0,0,0-24.486,1.283,1.283,0,0,0-.985-.539q-.064,0-.128,0Zm-26.478,3.779a1.3,1.3,0,0,0-1.07.579,14.788,14.788,0,0,0,0,16.848,1.284,1.284,0,0,0,2.113-1.459,12.228,12.228,0,0,1,0-13.931,1.283,1.283,0,0,0-1.042-2.037Zm22.21.01a1.283,1.283,0,0,0-1.022,2.027,12.263,12.263,0,0,1,0,13.931,1.284,1.284,0,0,0,2.113,1.458,14.835,14.835,0,0,0,0-16.848,1.283,1.283,0,0,0-1.09-.569Zm-14.853.867a1.263,1.263,0,0,0-.13,0,1.283,1.283,0,0,0-1.175,1.278v13.685a1.283,1.283,0,0,0,2.027,1.042l9.7-6.839a1.283,1.283,0,0,0,0-2.093l-9.7-6.849a1.283,1.283,0,0,0-.722-.231Zm1.263,3.754,6.192,4.368-6.192,4.375Z" transform="translate(-107.974 -163)" fill="#fff"/>
</svg>
