<svg id="Bulb" xmlns="http://www.w3.org/2000/svg" width="42.133" height="47.304" viewBox="0 0 42.133 47.304">
  <path id="Path_225" data-name="Path 225" d="M268.143,459.3a11.033,11.033,0,0,1,8.59,17.96,12.652,12.652,0,0,0-2.705,5.841l-.63,3.311a1,1,0,0,1-.984.816l-8.544,0a1,1,0,0,1-1-.895l-.616-3.236a12.653,12.653,0,0,0-2.705-5.841,11.033,11.033,0,0,1,8.59-17.96Zm0,2.007a9.034,9.034,0,0,0-7.031,14.7,14.61,14.61,0,0,1,3.113,6.728l.474,2.491h6.888l.474-2.491A14.611,14.611,0,0,1,275.174,476a9.034,9.034,0,0,0-7.031-14.7Z" transform="translate(-247.077 -449.265)" fill="#fff"/>
  <path id="Path_226" data-name="Path 226" d="M366.961,562.148a1,1,0,1,1,0,2.007,5.007,5.007,0,0,0-5.017,5.017,1,1,0,0,1-2.008,0A7.034,7.034,0,0,1,366.961,562.148Z" transform="translate(-345.894 -548.104)" fill="#fff"/>
  <path id="Path_227" data-name="Path 227" d="M514.263,203.169a1,1,0,0,1,2.008,0v5.016a1,1,0,0,1-2.008,0Z" transform="translate(-494.201 -202.165)" fill="#fff"/>
  <path id="Path_228" data-name="Path 228" d="M790.872,353.119a1,1,0,1,1,1.419,1.42l-3.546,3.546a1,1,0,0,1-1.42-1.419Z" transform="translate(-756.328 -346.948)" fill="#fff"/>
  <path id="Path_229" data-name="Path 229" d="M906.027,716.476a1,1,0,0,1,0,2.007h-5.015a1,1,0,1,1,0-2.007Z" transform="translate(-864.897 -696.412)" fill="#fff"/>
  <path id="Path_230" data-name="Path 230" d="M792.291,993.084a1,1,0,0,1-1.419,1.419l-3.547-3.547a1,1,0,0,1,1.42-1.419Z" transform="translate(-756.328 -958.538)" fill="#fff"/>
  <path id="Path_231" data-name="Path 231" d="M150.931,354.539a1,1,0,1,1,1.419-1.42l3.547,3.547a1,1,0,0,1-1.42,1.419l-3.546-3.546Z" transform="translate(-144.761 -346.948)" fill="#fff"/>
  <path id="Path_232" data-name="Path 232" d="M1,718.483a1,1,0,0,1,0-2.007H6.018a1,1,0,1,1,0,2.007Z" transform="translate(0 -696.412)" fill="#fff"/>
  <path id="Path_233" data-name="Path 233" d="M152.35,994.5a1,1,0,0,1-1.419-1.419l3.546-3.547a1,1,0,0,1,1.42,1.419Z" transform="translate(-144.761 -958.538)" fill="#fff"/>
  <path id="Path_234" data-name="Path 234" d="M405.788,1204.521a1,1,0,0,1,0-2.007h8.544a1,1,0,0,1,0,2.007Z" transform="translate(-388.993 -1163.488)" fill="#fff"/>
  <path id="Path_235" data-name="Path 235" d="M405.788,1284.89a1,1,0,0,1,0-2.007h8.544a1,1,0,0,1,0,2.007Z" transform="translate(-388.993 -1240.722)" fill="#fff"/>
  <path id="Path_236" data-name="Path 236" d="M458.816,1365.258a1,1,0,0,1,0-2.007h4.406a1,1,0,0,1,0,2.007Z" transform="translate(-439.953 -1317.955)" fill="#fff"/>
</svg>
