<svg xmlns="http://www.w3.org/2000/svg" width="51.045" height="68.104" viewBox="0 0 51.045 68.104">
  <g id="noun_Certificate_3504412" transform="translate(-8.742 -1)">
    <g id="Path_1032" data-name="Path 1032">
      <path d="M 57.72077941894531 68.60425567626953 L 10.80868816375732 68.60425567626953 L 10.80813789367676 68.60425567626953 C 9.944677352905273 68.60425567626953 9.24219799041748 67.90167999267578 9.24219799041748 67.03810119628906 L 9.24219799041748 3.06614875793457 C 9.242107391357422 2.647908926010132 9.40495777130127 2.254588842391968 9.700747489929199 1.958748817443848 C 9.996527671813965 1.662918925285339 10.38980770111084 1.499998927116394 10.80813789367676 1.499998927116394 L 47.0588264465332 1.499998927116394 C 47.47792816162109 1.501208901405334 47.8708381652832 1.66425883769989 48.1666259765625 1.959118843078613 L 58.82748794555664 12.62008857727051 C 58.97306823730469 12.76578903198242 59.08688735961914 12.93589878082275 59.16592788696289 13.12582874298096 C 59.24586868286133 13.31707859039307 59.28661727905273 13.51991844177246 59.28671646118164 13.7279691696167 L 59.28671646118164 67.03810119628906 C 59.28680801391602 67.45635223388672 59.12395858764648 67.84967041015625 58.82816696166992 68.1455078125 C 58.53238677978516 68.44133758544922 58.13910675048828 68.60425567626953 57.72077941894531 68.60425567626953 Z M 12.37428760528564 65.47183990478516 L 56.15495681762695 65.47183990478516 L 56.15495681762695 15.29469871520996 L 47.0588264465332 15.29469871520996 C 46.64016723632812 15.29469871520996 46.24690628051758 15.13176918029785 45.95113754272461 14.83590888977051 C 45.65535736083984 14.54004859924316 45.49253845214844 14.146728515625 45.49266815185547 13.7283992767334 L 45.49266815185547 4.632419109344482 L 12.37428760528564 4.632419109344482 L 12.37428760528564 65.47183990478516 Z M 48.62497711181641 12.16195869445801 L 53.9398078918457 12.16195869445801 L 48.62497711181641 6.847128868103027 L 48.62497711181641 12.16195869445801 Z M 23.26075744628906 64.34059906005859 C 22.85934829711914 64.34059906005859 22.47746849060059 64.18885803222656 22.18548774719238 63.91333770751953 L 20.11089897155762 61.95560455322266 L 17.27757835388184 61.62142944335938 C 16.77982711791992 61.5623779296875 16.33725738525391 61.26593017578125 16.09338760375977 60.82839965820312 C 15.84950733184814 60.3908576965332 15.83013725280762 59.85852813720703 16.04158782958984 59.4044303894043 L 18.79737281799316 53.49059677124023 C 17.92713737487793 52.57674789428711 17.52397537231445 51.31866836547852 17.71206855773926 50.0540885925293 L 17.71355819702148 50.04409790039062 L 17.7154483795166 50.0341682434082 C 17.72379684448242 49.99024963378906 17.72825813293457 49.94527816772461 17.72868728637695 49.90049743652344 C 17.73067855834961 49.5859489440918 17.58167839050293 49.28277969360352 17.33011817932129 49.09117889404297 L 17.32528686523438 49.08749771118164 L 17.32054710388184 49.08369827270508 C 17.28209495544434 49.05290985107422 17.24813461303711 49.0238151550293 17.21738052368164 48.99530410766602 C 16.21353149414062 48.19309234619141 15.62407875061035 46.94949340820312 15.63962745666504 45.66400909423828 C 15.65525817871094 44.37102890014648 16.28169822692871 43.13525772094727 17.31534767150879 42.35832977294922 C 17.57432746887207 42.16257858276367 17.72935676574707 41.85060882568359 17.7289981842041 41.52462768554688 C 17.72895812988281 41.48802947998047 17.72578811645508 41.45118713378906 17.7195873260498 41.41510009765625 L 17.71891784667969 41.41122055053711 L 17.71831703186035 41.4073371887207 C 17.68623733520508 41.20137786865234 17.67197036743164 40.99131011962891 17.67590141296387 40.78285217285156 C 17.68008041381836 39.57236862182617 18.20527267456055 38.4217643737793 19.11726760864258 37.62556076049805 C 19.88448715209961 36.95574951171875 20.86783790588379 36.58686828613281 21.88618850708008 36.58686828613281 C 22.07218742370605 36.58686828613281 22.26004791259766 36.59938049316406 22.44453811645508 36.62405776977539 L 22.45540809631348 36.62551879882812 L 22.4661979675293 36.62744903564453 C 22.51499366760254 36.63616180419922 22.56485366821289 36.64095687866211 22.61445426940918 36.64168167114258 C 22.94231605529785 36.64041900634766 23.25470733642578 36.48291397094727 23.45060729980469 36.21987915039062 C 24.24209785461426 35.1743278503418 25.49379730224609 34.55197906494141 26.80124855041504 34.55197906494141 L 26.80828857421875 34.5519905090332 C 28.11847686767578 34.5541877746582 29.37070846557617 35.18074035644531 30.15800857543945 36.22800827026367 C 30.35215759277344 36.48427963256836 30.66164779663086 36.63814926147461 30.98478698730469 36.63813018798828 C 31.03570747375488 36.63813018798828 31.08711814880371 36.63433074951172 31.13758850097656 36.62683868408203 C 31.31219863891602 36.60133743286133 31.48901748657227 36.5884895324707 31.66430854797363 36.5884895324707 C 31.68723106384277 36.5884895324707 31.71017074584961 36.58871078491211 31.73309516906738 36.58914184570312 C 32.943359375 36.59336090087891 34.09378051757812 37.11842346191406 34.88990783691406 38.0301399230957 C 35.68702697753906 38.94294738769531 36.05222702026367 40.15541839599609 35.89186859130859 41.35665893554688 L 35.89016723632812 41.36938858032227 L 35.8878173828125 41.38200759887695 C 35.87893676757812 41.42975997924805 35.87407302856445 41.47857284545898 35.87335586547852 41.52714920043945 C 35.87451934814453 41.85500717163086 36.03190994262695 42.16742324829102 36.29481887817383 42.36344909667969 C 37.32916641235352 43.14645004272461 37.9515380859375 44.3848876953125 37.96259689331055 45.67847061157227 C 37.97361755371094 46.96603775024414 37.37805938720703 48.20940780639648 36.36871719360352 49.00819778442383 C 36.33827972412109 49.03565216064453 36.306884765625 49.06371307373047 36.27470779418945 49.08858871459961 C 36.02058792114258 49.28224945068359 35.87163925170898 49.58536911010742 35.87356948852539 49.9014892578125 C 35.87362670898438 49.94004821777344 35.87677764892578 49.97650909423828 35.88293838500977 50.0122184753418 L 35.88364791870117 50.01633834838867 L 35.8842887878418 50.02046966552734 C 35.91630172729492 50.22653198242188 35.93056106567383 50.43672180175781 35.92667388916016 50.64523315429688 C 35.92518615722656 51.70323944091797 35.51935577392578 52.71802520751953 34.80171203613281 53.48353576660156 L 37.56057739257812 59.40361785888672 C 37.77208709716797 59.85786056518555 37.75272750854492 60.39017868041992 37.50886917114258 60.82772064208984 C 37.26498794555664 61.2652587890625 36.82242584228516 61.56171035766602 36.32499694824219 61.62071990966797 L 33.49133682250977 61.95492172241211 L 31.41677856445312 63.91264724731445 C 31.12458610534668 64.18797302246094 30.742919921875 64.33946990966797 30.34187698364258 64.33946990966797 C 30.34185218811035 64.33946990966797 30.34186172485352 64.33946990966797 30.34183692932129 64.33946990966797 C 30.24346733093262 64.33946228027344 30.14455795288086 64.33010101318359 30.04786682128906 64.31163024902344 C 29.55559730529785 64.21759796142578 29.13490676879883 63.89048004150391 28.92251777648926 63.43656921386719 L 26.8015079498291 58.89714050292969 L 24.68061828613281 63.43632888793945 C 24.46871757507324 63.89067840576172 24.04793739318848 64.21840667724609 23.5551872253418 64.31266784667969 C 23.45834732055664 64.33119964599609 23.35928726196289 64.34059906005859 23.26075744628906 64.34059906005859 Z M 19.79487609863281 58.76304626464844 L 20.99188804626465 58.90395736694336 C 21.32390785217285 58.94326782226562 21.64051818847656 59.09099960327148 21.88369750976562 59.31998825073242 L 22.75930023193359 60.14632034301758 L 24.58625221252441 56.23514175415039 C 24.52345848083496 56.19379043579102 24.46186256408691 56.15074157714844 24.40165710449219 56.10612487792969 C 24.38303565979004 56.09331512451172 24.35888481140137 56.07852172851562 24.33342742919922 56.06290817260742 C 24.27486801147461 56.02701950073242 24.20199775695801 55.98235702514648 24.12848854064941 55.92125701904297 C 23.87177848815918 55.7092170715332 23.63994789123535 55.46503829956055 23.44062805175781 55.19648742675781 L 23.43675804138184 55.19128036499023 L 23.43302726745605 55.18597030639648 C 23.25555801391602 54.93339920043945 22.96542739868164 54.78260803222656 22.65693855285645 54.78260803222656 C 22.60330772399902 54.78260803222656 22.54920768737793 54.78722763061523 22.49613761901855 54.79634857177734 C 22.31053733825684 54.82819747924805 22.12104797363281 54.8443489074707 21.9328670501709 54.8443489074707 C 21.90835762023926 54.8443489074707 21.88380813598633 54.84407806396484 21.85928726196289 54.84354019165039 C 21.77993774414062 54.84227752685547 21.70729827880859 54.83443832397461 21.64320755004883 54.82751846313477 C 21.63879585266113 54.82704162597656 21.6343822479248 54.82656478881836 21.62996101379395 54.82608795166016 L 19.79487609863281 58.76304626464844 Z M 29.01594543457031 56.23583984375 L 30.8427848815918 60.14629364013672 L 31.71777725219727 59.32040023803711 C 31.96128845214844 59.09107971191406 32.27777862548828 58.94334030151367 32.60936737060547 58.90401077270508 L 33.80556488037109 58.76288986206055 L 31.97422981262207 54.83397674560547 C 31.88713264465332 54.8396110534668 31.79989624023438 54.84244918823242 31.71295738220215 54.84244918823242 C 31.53167724609375 54.84244918823242 31.34867858886719 54.83010864257812 31.16905784606934 54.80575942993164 L 31.15837860107422 54.8043098449707 L 31.14775848388672 54.80239868164062 C 31.09473037719727 54.79286575317383 31.04056358337402 54.7874870300293 30.98669052124023 54.78638076782227 C 30.65914344787598 54.78786087036133 30.34715461730957 54.94531631469727 30.15145683288574 55.20813751220703 C 29.95381736755371 55.47403717041016 29.72359848022461 55.71590805053711 29.46744728088379 55.92668914794922 C 29.39595794677734 55.98583984375 29.32415771484375 56.0299186706543 29.26645851135254 56.06534957885742 C 29.24449348449707 56.07883071899414 29.22239303588867 56.09212112426758 29.2010498046875 56.106689453125 C 29.14068412780762 56.1513557434082 29.07890319824219 56.1944580078125 29.01594543457031 56.23583984375 Z M 22.60941696166992 51.65374755859375 L 22.61717796325684 51.65374755859375 C 23.92169761657715 51.65374755859375 25.16789817810059 52.27671813964844 25.95075798034668 53.32020950317383 L 25.95304679870605 53.32325744628906 L 25.95529747009277 53.32634735107422 C 26.14335823059082 53.58514785766602 26.44661712646484 53.74110794067383 26.76650810241699 53.7435302734375 L 26.77243804931641 53.74357986450195 L 26.77835845947266 53.74375915527344 C 26.7893180847168 53.74411010742188 26.80022811889648 53.74427795410156 26.8111572265625 53.74427795410156 C 27.13667678833008 53.74425888061523 27.44836807250977 53.58932876586914 27.64492797851562 53.32981872558594 C 28.42632675170898 52.28146743774414 29.67714691162109 51.65374755859375 30.98854827880859 51.65374755859375 C 31.19781875610352 51.65430450439453 31.40481567382812 51.6713981628418 31.60765838623047 51.70455551147461 C 31.64182472229004 51.70804977416992 31.67644691467285 51.70981979370117 31.71072769165039 51.70981979370117 C 31.76419830322266 51.70981979370117 31.81807708740234 51.70552825927734 31.87088775634766 51.69705963134766 L 31.87837791442871 51.69585800170898 L 31.88588714599609 51.69488906860352 C 31.98683738708496 51.68182754516602 32.08423614501953 51.65225982666016 32.17536926269531 51.60699844360352 L 32.17882919311523 51.60527801513672 L 32.18231582641602 51.60361862182617 C 32.35244750976562 51.52236938476562 32.49736785888672 51.39630889892578 32.60140609741211 51.23906707763672 L 32.60558700561523 51.23273849487305 L 32.60996627807617 51.22653961181641 C 32.73124694824219 51.0547981262207 32.79482650756836 50.85289001464844 32.79383850097656 50.64265060424805 L 32.79376602172852 50.62909698486328 L 32.79443740844727 50.61555862426758 C 32.79588317871094 50.58632278442383 32.79530715942383 50.55678939819336 32.7927360534668 50.52759552001953 C 32.759033203125 50.32286071777344 32.74154281616211 50.11406326293945 32.74071884155273 49.9066276550293 C 32.73482131958008 48.63573837280273 33.30015563964844 47.45430374145508 34.29274368286133 46.66179275512695 C 34.33076858520508 46.62644577026367 34.37071990966797 46.59267044067383 34.41177749633789 46.5611686706543 C 34.67404937744141 46.36026763916016 34.83041763305664 46.04351806640625 34.83041763305664 45.71358871459961 C 34.83041763305664 45.384765625 34.67511367797852 45.06903839111328 34.41477966308594 44.86830902099609 C 33.36466979980469 44.08422088623047 32.73901748657227 42.83406829833984 32.74093627929688 41.5234375 C 32.74166107177734 41.3150520324707 32.75935363769531 41.10624694824219 32.79356002807617 40.90162658691406 C 32.82471466064453 40.60886001586914 32.73100280761719 40.31588363647461 32.53544998168945 40.09549331665039 C 32.3137092590332 39.85671615600586 31.99996948242188 39.7198486328125 31.67402839660645 39.7198486328125 L 31.65346717834473 39.72002792358398 L 31.64481735229492 39.72018051147461 L 31.63616752624512 39.72003936767578 C 31.63607978820801 39.72003936767578 31.6359920501709 39.72003936767578 31.63590431213379 39.72003936767578 C 31.63180541992188 39.72003936767578 31.62869262695312 39.72026824951172 31.6256275177002 39.72071075439453 C 31.42040824890137 39.75199890136719 31.20733833312988 39.76815032958984 30.99621772766113 39.76815032958984 C 29.69610214233398 39.76815032958984 28.44943809509277 39.15170669555664 27.65965461730957 38.11870956420898 C 27.44919395446777 37.86134338378906 27.13827133178711 37.71305084228516 26.8055477142334 37.71157836914062 C 26.80552673339844 37.71157836914062 26.80550003051758 37.71157836914062 26.80547904968262 37.71157836914062 C 26.47115898132324 37.71157836914062 26.16188049316406 37.85595703125 25.950439453125 38.10808944702148 C 25.16624450683594 39.15189361572266 23.92006874084473 39.77465057373047 22.61410713195801 39.77465057373047 C 22.40342140197754 39.7740592956543 22.19544982910156 39.75684356689453 21.99163246154785 39.72346878051758 C 21.95221710205078 39.71892547607422 21.9122428894043 39.71661758422852 21.87266731262207 39.71661758422852 C 21.61670684814453 39.71661758422852 21.37085723876953 39.81082916259766 21.18038749694824 39.98189926147461 L 21.17770767211914 39.98431015014648 L 21.17498779296875 39.98667907714844 C 20.94276809692383 40.18927764892578 20.80898857116699 40.48222732543945 20.8079776763916 40.79040908813477 L 20.80793762207031 40.80130767822266 L 20.80742835998535 40.81219863891602 C 20.80600929260254 40.84247207641602 20.80640983581543 40.8730583190918 20.80861663818359 40.90334701538086 C 20.84265899658203 41.10752868652344 20.86029624938965 41.31572723388672 20.8610782623291 41.52252960205078 C 20.86390686035156 42.83071899414062 20.24108695983887 44.07949066162109 19.19504737854004 44.86376953125 C 18.93138694763184 45.06245040893555 18.77265739440918 45.37931823730469 18.77141761779785 45.71065902709961 C 18.77017211914062 46.04091644287109 18.92550086975098 46.35797119140625 19.18705177307129 46.55946350097656 C 19.2346305847168 46.5949821472168 19.28060722351074 46.63344955444336 19.32404136657715 46.674072265625 C 20.30684471130371 47.46643447875977 20.86682510375977 48.64343643188477 20.86118698120117 49.90687942504883 C 20.86054039001465 50.11432647705078 20.84274101257324 50.32380676269531 20.80826568603516 50.52912139892578 C 20.77986335754395 50.77696228027344 20.84228897094727 51.02587890625 20.98454856872559 51.23112869262695 L 20.98639678955078 51.23381042480469 L 20.98822784423828 51.23650741577148 C 21.08851623535156 51.38532257080078 21.22508811950684 51.50606918334961 21.3846549987793 51.58736801147461 L 21.4162769317627 51.60184860229492 C 21.51199722290039 51.64657974243164 21.61335563659668 51.67787170410156 21.7176342010498 51.69486999511719 C 21.78573417663574 51.70372772216797 21.85501670837402 51.70821762084961 21.92365837097168 51.70820999145508 L 21.94951820373535 51.7080078125 L 21.95743751525879 51.70787811279297 L 21.96536827087402 51.70800018310547 C 21.96545600891113 51.70800018310547 21.96554374694824 51.70800018310547 21.96562957763672 51.70800018310547 C 21.96897888183594 51.70800018310547 21.97178077697754 51.70786666870117 21.97439956665039 51.70761108398438 C 22.18367004394531 51.67274856567383 22.39726829528809 51.65462493896484 22.60941696166992 51.65374755859375 Z M 48.12535858154297 50.47890853881836 L 48.12525939941406 50.47890853881836 L 48.12482833862305 50.47890853881836 L 41.72784805297852 50.47890853881836 C 41.30951690673828 50.47895050048828 40.91617584228516 50.3160400390625 40.62033843994141 50.02021026611328 C 40.32450866699219 49.72438812255859 40.16158676147461 49.33106994628906 40.16158676147461 48.91270065307617 C 40.16158676147461 48.04905700683594 40.86420822143555 47.34643936157227 41.72784805297852 47.34643936157227 L 48.12497711181641 47.34648895263672 C 48.54365921020508 47.34648895263672 48.93693923950195 47.50940704345703 49.23270797729492 47.80524826049805 C 49.52848815917969 48.10108947753906 49.69132614135742 48.49440765380859 49.69123840332031 48.91275787353516 C 49.69136810302734 49.33084869384766 49.52852630615234 49.72418975830078 49.23271942138672 50.02006912231445 C 48.93694686889648 50.31591796875 48.54367828369141 50.4788703918457 48.12535858154297 50.47890853881836 Z M 25.73463821411133 49.41264724731445 C 25.31625747680664 49.41264724731445 24.92294692993164 49.24968719482422 24.62715721130371 48.95380020141602 L 22.49490737915039 46.82143020629883 C 22.19912719726562 46.52565765380859 22.03622817993164 46.13237762451172 22.03622817993164 45.71406936645508 C 22.0362377166748 45.29576873779297 22.19912719726562 44.90250015258789 22.49491691589355 44.60671997070312 C 22.79070854187012 44.31092834472656 23.18396759033203 44.14802932739258 23.6022777557373 44.14802932739258 C 24.02058792114258 44.14802932739258 24.41384696960449 44.31092834472656 24.70963859558105 44.60671997070312 L 25.73468589782715 45.63176727294922 L 28.89203834533691 42.47430801391602 C 29.1877384185791 42.17841720581055 29.58110809326172 42.01540756225586 29.99957847595215 42.01540756225586 C 30.41803741455078 42.01540756225586 30.8114070892334 42.17841720581055 31.10721778869629 42.47441864013672 L 31.96009826660156 43.32785797119141 L 31.54532623291016 43.32785797119141 C 31.55879783630371 43.4109992980957 31.5656681060791 43.495849609375 31.5656681060791 43.58172988891602 C 31.5656681060791 44.0001106262207 31.40270805358887 44.39341735839844 31.1068172454834 44.689208984375 L 26.84204864501953 48.9538688659668 C 26.54632759094238 49.24968719482422 26.15301704406738 49.41264724731445 25.73463821411133 49.41264724731445 Z M 48.12530899047852 44.08166885375977 L 48.12518692016602 44.08166885375977 L 48.12450790405273 44.08166885375977 L 41.72784805297852 44.08166885375977 C 40.8642692565918 44.08166885375977 40.16169738769531 43.37909698486328 40.16169738769531 42.51551818847656 C 40.16169738769531 41.65193939208984 40.8642692565918 40.94936752319336 41.72784805297852 40.94936752319336 L 48.12497711181641 40.94936752319336 C 48.54365921020508 40.94936752319336 48.93693923950195 41.11228942871094 49.23270797729492 41.40811920166016 C 49.52848815917969 41.70396041870117 49.69132614135742 42.0972785949707 49.69123840332031 42.51562881469727 C 49.69123840332031 43.37909698486328 48.98876953125 44.08166885375977 48.12530899047852 44.08166885375977 Z M 48.12535858154297 37.68453979492188 L 48.12525939941406 37.68453979492188 L 48.12482833862305 37.68453979492188 L 41.72784805297852 37.68453979492188 C 41.30951690673828 37.68457794189453 40.91617584228516 37.52166748046875 40.62033843994141 37.22583770751953 C 40.32450866699219 36.93001937866211 40.16158676147461 36.53669738769531 40.16158676147461 36.11832809448242 C 40.16158676147461 35.25468826293945 40.86420822143555 34.55207061767578 41.72784805297852 34.55207061767578 L 48.12497711181641 34.55212783813477 C 48.54367828369141 34.55212783813477 48.93694686889648 34.71504974365234 49.23271942138672 35.01088714599609 C 49.52848815917969 35.30672073364258 49.69132614135742 35.70003890991211 49.69123840332031 36.11838912963867 C 49.69136810302734 36.53647994995117 49.52852630615234 36.92981719970703 49.23271942138672 37.22570037841797 C 48.93694686889648 37.52154922485352 48.54367828369141 37.68449783325195 48.12535858154297 37.68453979492188 Z M 48.12535858154297 31.28729820251465 L 48.12520599365234 31.28729820251465 L 48.12450790405273 31.28729820251465 L 20.40393829345703 31.28729820251465 C 19.9856071472168 31.28733825683594 19.5922679901123 31.12442970275879 19.29642677307129 30.82859802246094 C 19.00059700012207 30.53277969360352 18.83767700195312 30.13945960998535 18.83767700195312 29.72108840942383 C 18.83767700195312 28.85744857788086 19.54029846191406 28.15482902526855 20.40393829345703 28.15482902526855 L 48.12497711181641 28.15488815307617 C 48.54345703125 28.15488815307617 48.93684768676758 28.31782913208008 49.232666015625 28.61368942260742 C 49.52851867675781 28.90956878662109 49.69137954711914 29.30295944213867 49.69123840332031 29.72137832641602 C 49.69114685058594 30.58470916748047 48.98869705200195 31.28722953796387 48.12535858154297 31.28729820251465 Z M 48.12530899047852 24.89016914367676 L 48.12530899047852 24.39016914367676 L 48.12527847290039 24.89016914367676 L 48.12519836425781 24.89016914367676 L 48.12482833862305 24.89016914367676 L 20.40393829345703 24.89016914367676 C 19.9856071472168 24.89020919799805 19.59227752685547 24.72730827331543 19.29642677307129 24.43147850036621 C 19.00059700012207 24.13565826416016 18.83767700195312 23.74232864379883 18.83767700195312 23.32395935058594 C 18.83767700195312 22.46031951904297 19.54029846191406 21.75769805908203 20.40393829345703 21.75769805908203 L 48.12497711181641 21.75775909423828 C 48.54363632202148 21.75775909423828 48.93691635131836 21.92067909240723 49.23268890380859 22.21650886535645 C 49.52847671508789 22.51234817504883 49.69132614135742 22.90566825866699 49.69123840332031 23.32400894165039 C 49.69136810302734 23.74210929870605 49.52852630615234 24.13545799255371 49.23272705078125 24.43134880065918 C 48.93692779541016 24.72721862792969 48.54364776611328 24.89016914367676 48.12530899047852 24.89016914367676 Z M 33.19830703735352 18.49297904968262 L 20.40393829345703 18.49292945861816 C 19.98527717590332 18.49292945861816 19.59200859069824 18.33000946044922 19.29622840881348 18.0341796875 C 19.00043678283691 17.73833847045898 18.83758735656738 17.34502792358398 18.83766746520996 16.92668914794922 C 18.83767700195312 16.06313896179199 19.54020690917969 15.36051845550537 20.40371704101562 15.36051845550537 L 33.19830703735352 15.36051845550537 C 33.61663818359375 15.36047840118408 34.00996780395508 15.5233793258667 34.30581665039062 15.81920909881592 C 34.60164642333984 16.11502838134766 34.76456832885742 16.50834846496582 34.76456832885742 16.92671966552734 C 34.76456832885742 17.79035949707031 34.06194686889648 18.49297904968262 33.19830703735352 18.49297904968262 Z" stroke="none"/>
      <path d="M 10.80813598632812 2 C 10.21936416625977 1.999992370605469 9.742076873779297 2.477348327636719 9.742198944091797 3.066146850585938 L 9.742198944091797 67.03810119628906 C 9.742198944091797 67.62702178955078 10.21950912475586 68.10425567626953 10.80812454223633 68.10425567626953 C 10.8083381652832 68.10425567626953 10.8084602355957 68.10425567626953 10.80867767333984 68.10425567626953 L 57.7204475402832 68.10425567626953 C 57.72055435180664 68.10425567626953 57.72067260742188 68.10425567626953 57.72077941894531 68.10425567626953 C 58.30955123901367 68.10425567626953 58.78683853149414 67.62689971923828 58.78670883178711 67.03810119628906 L 58.78670883178711 13.72821807861328 C 58.78664779663086 13.58734893798828 58.75862884521484 13.44789886474609 58.70429992675781 13.31792831420898 C 58.65072631835938 13.1892204284668 58.57246780395508 13.07225036621094 58.47391891479492 12.97364044189453 L 47.81362915039062 2.313217163085938 C 47.6131591796875 2.113388061523438 47.34187698364258 2.000816345214844 47.05883026123047 2 L 10.80846786499023 2 C 10.8083610534668 2 10.80824279785156 2 10.80813598632812 2 M 47.05848693847656 14.79470062255859 C 47.05862808227539 14.79470062255859 47.05867385864258 14.79470062255859 47.05881500244141 14.79470062255859 L 56.65495681762695 14.79470062255859 L 56.65495681762695 65.97183990478516 L 11.8742790222168 65.97183990478516 L 11.8742790222168 4.132415771484375 L 45.99266815185547 4.132415771484375 L 45.99266815185547 13.72854995727539 C 45.99248504638672 14.31729507446289 46.46979522705078 14.79470062255859 47.05848693847656 14.79470062255859 M 55.14690780639648 12.66196060180664 L 48.12497711181641 12.66196060180664 L 48.12497711181641 5.640029907226562 L 55.14690780639648 12.66196060180664 M 20.40371322631836 15.86051940917969 C 19.81503295898438 15.86051940917969 19.33767700195312 16.33781051635742 19.33766937255859 16.92678070068359 C 19.33755874633789 17.51557922363281 19.81484222412109 17.99292755126953 20.40360641479492 17.99292755126953 C 20.40371322631836 17.99292755126953 20.40383148193359 17.99292755126953 20.40393829345703 17.99292755126953 L 33.19830703735352 17.99297714233398 C 33.78718948364258 17.99297714233398 34.26456832885742 17.51559829711914 34.26456832885742 16.92671966552734 C 34.26456832885742 16.33784866333008 33.78718948364258 15.86045837402344 33.19830703735352 15.86051940917969 L 20.40415954589844 15.86051940917969 C 20.40397644042969 15.86051940917969 20.40389251708984 15.86051940917969 20.40371322631836 15.86051940917969 M 20.40393829345703 22.25769805908203 C 19.81505584716797 22.25769805908203 19.33766937255859 22.73508071899414 19.33766937255859 23.32395935058594 C 19.33766937255859 23.91283798217773 19.81505584716797 24.39022064208984 20.40393829345703 24.39016723632812 L 48.12497711181641 24.39016723632812 C 48.1251220703125 24.39016723632812 48.12516784667969 24.39016723632812 48.12531280517578 24.39016723632812 C 48.71406173706055 24.39016723632812 49.1914176940918 23.91272354125977 49.19123840332031 23.32390975952148 C 49.19136047363281 22.7350959777832 48.71407318115234 22.25775909423828 48.12531280517578 22.25775909423828 C 48.12520217895508 22.25775909423828 48.12508392333984 22.25775909423828 48.12497711181641 22.25775909423828 L 20.40393829345703 22.25769805908203 M 20.40393829345703 28.65482711791992 C 19.81505584716797 28.65482711791992 19.33766937255859 29.13220977783203 19.33766937255859 29.72108840942383 C 19.33766937255859 30.30997848510742 19.81505584716797 30.78734970092773 20.40393829345703 30.78730010986328 L 48.124755859375 30.78730010986328 C 48.12497329711914 30.78730010986328 48.12509918212891 30.78730010986328 48.12531280517578 30.78730010986328 C 48.71389007568359 30.78730010986328 49.19117736816406 30.31008529663086 49.19123840332031 29.72122192382812 C 49.19142150878906 29.13234329223633 48.71409225463867 28.65488815307617 48.12497711181641 28.65488815307617 L 20.40393829345703 28.65482711791992 M 49.19123840332031 29.72114944458008 C 49.19123840332031 29.72118377685547 49.19123840332031 29.72118759155273 49.19123840332031 29.72122192382812 C 49.19123840332031 29.72125625610352 49.19123840332031 29.72133255004883 49.19123840332031 29.72137069702148 L 49.19123840332031 29.72114944458008 M 26.80123901367188 35.05198287963867 C 25.64273834228516 35.05198287963867 24.55099868774414 35.59467697143555 23.85159683227539 36.51854705810547 C 23.55977630615234 36.91036987304688 23.10004806518555 37.14138031005859 22.61148834228516 37.14168930053711 C 22.53326797485352 37.14077758789062 22.45525741577148 37.13340759277344 22.37824630737305 37.11964797973633 C 22.21415710449219 37.09769821166992 22.04972076416016 37.08686828613281 21.88618469238281 37.08686828613281 C 20.99442672729492 37.08686828613281 20.12613677978516 37.40851593017578 19.44608688354492 38.0022087097168 C 18.64133834838867 38.70479965209961 18.17844772338867 39.72014617919922 18.17588806152344 40.78843688964844 C 18.17223739624023 40.96979904174805 18.1844367980957 41.15113830566406 18.21235656738281 41.33037948608398 C 18.22335815429688 41.39435958862305 18.22892761230469 41.45914840698242 18.22899627685547 41.52407073974609 C 18.22953796386719 42.00882720947266 18.00247955322266 42.46572113037109 17.61576843261719 42.75801849365234 C 16.69875717163086 43.44726943969727 16.15345764160156 44.52298736572266 16.13958740234375 45.67005920410156 C 16.12571716308594 46.81713104248047 16.64485931396484 47.90571975708008 17.54491806030273 48.61693954467773 C 17.57301712036133 48.64393615722656 17.60320663452148 48.66949844360352 17.6330680847168 48.69340896606445 C 18.01105880737305 48.98130035400391 18.23166656494141 49.43019104003906 18.22865676879883 49.90531921386719 C 18.22794723510742 49.97993850708008 18.22057723999023 50.05433654785156 18.20662689208984 50.12764739990234 C 18.02573776245117 51.34379959106445 18.47598648071289 52.56842803955078 19.40156936645508 53.37777709960938 L 16.49485778808594 59.6154899597168 C 16.35046768188477 59.92559814453125 16.36357879638672 60.28617095947266 16.53012847900391 60.58496856689453 C 16.69667816162109 60.8837776184082 16.99643707275391 61.08456802368164 17.33614730834961 61.12485885620117 L 20.33374786376953 61.47842025756836 L 22.52862930297852 63.54967880249023 C 22.72840881347656 63.73819732666016 22.99106597900391 63.84059906005859 23.26076126098633 63.84059906005859 C 23.32744598388672 63.84059906005859 23.39453125 63.83434295654297 23.46123886108398 63.82157897949219 C 23.7977294921875 63.75720977783203 24.08282852172852 63.53514862060547 24.22761917114258 63.22465896606445 L 26.80150604248047 57.71596908569336 L 29.37538909912109 63.22465896606445 C 29.52045822143555 63.5346794128418 29.80545806884766 63.75629043579102 30.14165878295898 63.82049942016602 C 30.20824813842773 63.83321762084961 30.27529525756836 63.83946228027344 30.34186553955078 63.83946228027344 C 30.61140060424805 63.83946228027344 30.87382507324219 63.73724746704102 31.0735969543457 63.54900741577148 L 33.26848602294922 61.47773742675781 L 36.26609802246094 61.12418746948242 C 36.60579681396484 61.08390045166016 36.90556716918945 60.88311004638672 37.07211685180664 60.58429718017578 C 37.23865509033203 60.28548812866211 37.25177001953125 59.9249267578125 37.10737609863281 59.61480712890625 L 34.19879913330078 53.37346649169922 C 34.97961807250977 52.67950820922852 35.42646789550781 51.68480682373047 35.42667770385742 50.64016723632812 C 35.43031692504883 50.45846939086914 35.41811752319336 50.27680969238281 35.39021682739258 50.09722900390625 C 35.37923812866211 50.03358840942383 35.3736686706543 49.9691162109375 35.37357711791992 49.904541015625 C 35.37067794799805 49.42956924438477 35.59116744995117 48.98085784912109 35.96895599365234 48.69295883178711 C 35.98977661132812 48.6768684387207 36.01786804199219 48.65130615234375 36.04607772827148 48.62585830688477 C 36.94913864135742 47.91759872436523 37.47243499755859 46.83037948608398 37.46261596679688 45.6827392578125 C 37.45280838012695 44.53511047363281 36.91099548339844 43.45700073242188 35.99594879150391 42.76428985595703 C 35.6043586730957 42.47232055664062 35.37357711791992 42.01262664794922 35.37334823608398 41.52417755126953 C 35.37424850463867 41.44577026367188 35.38191604614258 41.36757659912109 35.39626693725586 41.29049682617188 C 35.53759765625 40.23178863525391 35.21583938598633 39.16352844238281 34.51328659057617 38.3590087890625 C 33.81075668334961 37.55447769165039 32.79557800292969 37.09172821044922 31.72748947143555 37.08913040161133 C 31.7064323425293 37.08870315551758 31.68536376953125 37.08849334716797 31.66431045532227 37.08849334716797 C 31.51263046264648 37.08849334716797 31.36113739013672 37.09949111938477 31.21098709106445 37.12141799926758 C 31.13545608520508 37.13262939453125 31.0598258972168 37.13813018798828 30.98481369018555 37.13813018798828 C 30.50746536254883 37.13813018798828 30.0517692565918 36.915771484375 29.75834655761719 36.52845001220703 C 29.06081771850586 35.6005973815918 27.96823883056641 35.05393981933594 26.80743789672852 35.0519905090332 C 26.80538177490234 35.05198669433594 26.80329132080078 35.05198287963867 26.80123901367188 35.05198287963867 M 30.9962043762207 39.26814270019531 C 31.18138122558594 39.26814270019531 31.36776351928711 39.25423812866211 31.5541877746582 39.225830078125 C 31.58097076416016 39.22196960449219 31.60799407958984 39.22002410888672 31.63505554199219 39.22002410888672 C 31.63828659057617 39.22002410888672 31.64151382446289 39.22005462646484 31.64474868774414 39.22010803222656 C 31.65449142456055 39.21994018554688 31.66429901123047 39.21985626220703 31.67402648925781 39.21985626220703 C 32.14146041870117 39.21985626220703 32.58815383911133 39.41515350341797 32.90567779541016 39.75940704345703 C 33.20106887817383 40.08985900878906 33.3405876159668 40.53112030029297 33.28886795043945 40.97132110595703 C 33.25760650634766 41.15396118164062 33.2415771484375 41.3388786315918 33.24093627929688 41.524169921875 C 33.23923873901367 42.6839485168457 33.78632736206055 43.77616119384766 34.71616744995117 44.46933746337891 C 35.10335922241211 44.76591873168945 35.33041763305664 45.22586059570312 35.33041763305664 45.71358871459961 C 35.33041763305664 46.20131683349609 35.10335922241211 46.66124725341797 34.71616744995117 46.95783996582031 C 34.6827278137207 46.98348999023438 34.65073776245117 47.01097106933594 34.62031936645508 47.04013824462891 C 33.74435806274414 47.73196792602539 33.23553848266602 48.78844833374023 33.24071884155273 49.90464782714844 C 33.24145889282227 50.09133148193359 33.25748825073242 50.27762603759766 33.28864669799805 50.46168899536133 C 33.29504776000977 50.52099609375 33.29677581787109 50.58071136474609 33.29382705688477 50.64028930664062 C 33.29530715942383 50.95339965820312 33.19901657104492 51.25917816162109 33.01839828491211 51.51494979858398 C 32.86430740356445 51.74785614013672 32.64977645874023 51.93447113037109 32.39777755737305 52.0548095703125 C 32.25711822509766 52.12466812133789 32.10579681396484 52.17060852050781 31.95003890991211 52.19075775146484 C 31.87081527709961 52.20346069335938 31.79079818725586 52.20981597900391 31.71074676513672 52.20981597900391 C 31.65370941162109 52.20981597900391 31.59666061401367 52.20658874511719 31.53985595703125 52.20012664794922 C 31.35849761962891 52.16976165771484 31.17496871948242 52.15425109863281 30.9910774230957 52.15374755859375 C 30.99029922485352 52.15374755859375 30.98931884765625 52.15374755859375 30.98854064941406 52.15374755859375 C 29.82854080200195 52.15374755859375 28.73680114746094 52.70158386230469 28.04349899291992 53.63172149658203 C 27.75072479248047 54.01823806762695 27.29420471191406 54.24427795410156 26.81118011474609 54.24427795410156 C 26.7950325012207 54.24427795410156 26.7789192199707 54.24402618408203 26.76271820068359 54.2435188293457 C 26.28273773193359 54.2398796081543 25.83297729492188 54.00857925415039 25.55080795288086 53.62026977539062 C 24.85811233520508 52.69697570800781 23.77121734619141 52.15374374389648 22.61717987060547 52.15374374389648 C 22.61527633666992 52.15374374389648 22.6133918762207 52.15374755859375 22.61148834228516 52.15374755859375 C 22.42270660400391 52.1545295715332 22.23430633544922 52.17073059082031 22.04816818237305 52.20222854614258 C 22.0211296081543 52.20606994628906 21.99385452270508 52.2080078125 21.966552734375 52.2080078125 C 21.96356964111328 52.2080078125 21.96059036254883 52.20798492431641 21.95760726928711 52.20793914794922 C 21.94629287719727 52.20812225341797 21.93497085571289 52.20821380615234 21.92365646362305 52.20821380615234 C 21.8305549621582 52.20821380615234 21.73756408691406 52.20201873779297 21.64526748657227 52.18965911865234 C 21.49277877807617 52.16556930541992 21.34442901611328 52.12017059326172 21.20456695556641 52.0548095703125 L 21.20247650146484 52.0548095703125 C 20.94802856445312 51.93527984619141 20.73070907592773 51.74906921386719 20.5735969543457 51.51594924926758 C 20.35958862304688 51.20716857910156 20.26689910888672 50.83032989501953 20.31325912475586 50.45749664306641 C 20.34458923339844 50.27487945556641 20.36061859130859 50.08995056152344 20.36118698120117 49.90464782714844 C 20.36613845825195 48.79460906982422 19.86282730102539 47.74333953857422 18.99502944946289 47.0511474609375 C 18.96062850952148 47.01794815063477 18.92412948608398 46.98699951171875 18.88573837280273 46.95849609375 C 18.49686813354492 46.66085815429688 18.26957702636719 46.19847869873047 18.27141952514648 45.70877838134766 C 18.27325820922852 45.21908950805664 18.50400924682617 44.75843048095703 18.89510726928711 44.46371841430664 C 19.8201789855957 43.7701416015625 20.36357879638672 42.68059921264648 20.36107635498047 41.52439880371094 C 20.36037826538086 41.33734893798828 20.34400939941406 41.15068817138672 20.31216812133789 40.96636962890625 C 20.30659866333008 40.90734100341797 20.30519866943359 40.84798812866211 20.30798721313477 40.78875732421875 C 20.30946731567383 40.3366584777832 20.50561904907227 39.90711975097656 20.84627914428711 39.60990905761719 C 21.12980270385742 39.35527038574219 21.49599838256836 39.21662902832031 21.87266540527344 39.21661376953125 C 21.93574142456055 39.21661376953125 21.99906539916992 39.22050094604492 22.0623893737793 39.22837829589844 C 22.24374771118164 39.25865173339844 22.42728805541992 39.27412796020508 22.61115646362305 39.27465057373047 C 22.61207962036133 39.27465057373047 22.61318969726562 39.27465057373047 22.61410903930664 39.27465057373047 C 23.77333068847656 39.27465057373047 24.86442947387695 38.72748184204102 25.55775833129883 37.79832077026367 C 25.86360931396484 37.42673492431641 26.31960678100586 37.21157455444336 26.80062103271484 37.21156311035156 C 26.80300903320312 37.21156311035156 26.80536651611328 37.21156692504883 26.80775833129883 37.21157836914062 C 27.29140853881836 37.21371841430664 27.74847793579102 37.43320846557617 28.05252838134766 37.8093376159668 C 28.75849533081055 38.73649597167969 29.85188674926758 39.26814270019531 30.9962043762207 39.26814270019531 M 22.91942596435547 60.98493957519531 L 21.54092788696289 59.68400955200195 C 21.37403869628906 59.52685928344727 21.16106796264648 59.4274787902832 20.93342590332031 59.40052032470703 L 19.04945755004883 59.17874908447266 L 21.32442855834961 54.29804992675781 C 21.41344833374023 54.31192779541016 21.51305770874023 54.31380844116211 21.6088981628418 54.32162857055664 C 21.69704818725586 54.32901000976562 21.78055953979492 54.34222793579102 21.87034606933594 54.34365844726562 C 21.89115905761719 54.3441162109375 21.91197204589844 54.3443489074707 21.93277740478516 54.3443489074707 C 22.09319305419922 54.3443489074707 22.25335311889648 54.33070755004883 22.41151809692383 54.30355834960938 C 22.49345397949219 54.28948974609375 22.57556533813477 54.28261184692383 22.65694427490234 54.28261184692383 C 23.12358474731445 54.28261184692383 23.56806182861328 54.50845336914062 23.84212875366211 54.89849853515625 C 24.01760864257812 55.13492965698242 24.22107696533203 55.34922790527344 24.44807815551758 55.53673934936523 C 24.52442932128906 55.60018920898438 24.61333847045898 55.64360046386719 24.69387817382812 55.70034027099609 C 24.84562683105469 55.81325912475586 25.00610733032227 55.91394805908203 25.17379760742188 56.00144958496094 C 25.1939582824707 56.01124954223633 25.21036911010742 56.02766799926758 25.23064804077148 56.03702926635742 L 22.91942596435547 60.98493957519531 M 31.71295166015625 54.34244918823242 C 31.89754486083984 54.34244918823242 32.08208847045898 54.32804870605469 32.26491928100586 54.29927062988281 L 32.27592849731445 54.2977294921875 L 34.55090713500977 59.17842102050781 L 32.66825866699219 59.40052795410156 C 32.44068908691406 59.42752075195312 32.22780609130859 59.52688980102539 32.06097793579102 59.68400955200195 L 30.68270874023438 60.98493957519531 L 28.37125778198242 56.03714752197266 C 28.39043807983398 56.02822113037109 28.40596771240234 56.01279830932617 28.42513656616211 56.0034294128418 C 28.59456634521484 55.91543960571289 28.75667953491211 55.81401824951172 28.90989685058594 55.70011901855469 C 28.98889923095703 55.64503860473633 29.07516860961914 55.60229873657227 29.14974594116211 55.54059982299805 C 29.37482833862305 55.35538864135742 29.5765380859375 55.14347076416016 29.75041580200195 54.90953063964844 C 30.04218673706055 54.51767730712891 30.50188827514648 54.28665924072266 30.99041748046875 54.28636932373047 C 31.07286834716797 54.28769683837891 31.15506744384766 54.29570007324219 31.2362174987793 54.31028747558594 C 31.39443206787109 54.33173370361328 31.5537109375 54.34244918823242 31.71295166015625 54.34244918823242 M 41.72784805297852 35.05207061767578 C 41.13896942138672 35.05207061767578 40.66157531738281 35.52944946289062 40.66157531738281 36.11832809448242 C 40.66157531738281 36.70721054077148 41.13896942138672 37.18458938598633 41.72784805297852 37.18453979492188 L 48.12497711181641 37.18453979492188 C 48.1251220703125 37.18453979492188 48.12516784667969 37.18453979492188 48.12531280517578 37.18453979492188 C 48.71406173706055 37.18453979492188 49.1914176940918 36.70708465576172 49.19123840332031 36.11827850341797 C 49.19136810302734 35.52946853637695 48.714111328125 35.05212783813477 48.12534713745117 35.05212783813477 C 48.12524032592773 35.05212783813477 48.12508392333984 35.05212783813477 48.12497711181641 35.05212783813477 L 41.72784805297852 35.05207061767578 M 48.12531280517578 41.44935607910156 C 48.12520217895508 41.44935607910156 48.12508392333984 41.44935607910156 48.12497711181641 41.44935607910156 L 41.72784805297852 41.44935607910156 C 41.13903045654297 41.44935607910156 40.66169738769531 41.92669677734375 40.66169738769531 42.51551818847656 C 40.66169738769531 43.10433959960938 41.13903045654297 43.58166885375977 41.72784805297852 43.58166885375977 L 48.124755859375 43.58166885375977 C 48.12497329711914 43.58166885375977 48.12509918212891 43.58166885375977 48.12531280517578 43.58166885375977 C 48.71392822265625 43.58166885375977 49.19123840332031 43.10443115234375 49.19123840332031 42.51551818847656 C 49.19136810302734 41.92670440673828 48.71407318115234 41.44935607910156 48.12531280517578 41.44935607910156 M 29.99957275390625 42.51541137695312 C 29.72666931152344 42.51541137695312 29.45376205444336 42.61956024169922 29.24559783935547 42.82785797119141 L 25.73469924926758 46.3388786315918 L 24.35608673095703 44.96026611328125 C 24.14793395996094 44.75210952758789 23.87510681152344 44.64802932739258 23.60227966308594 44.64802932739258 C 23.3294563293457 44.64802932739258 23.0566291809082 44.75210952758789 22.84846878051758 44.96026611328125 C 22.43214797973633 45.37657928466797 22.43214797973633 46.05156707763672 22.84846878051758 46.46788787841797 L 24.98077774047852 48.60031127929688 C 25.18892669677734 48.80853271484375 25.46178436279297 48.91264724731445 25.73463821411133 48.91264724731445 C 26.00749206542969 48.91264724731445 26.28034591674805 48.80853271484375 26.48849868774414 48.60031127929688 L 30.75332641601562 44.33558654785156 C 31.16977691650391 43.91928863525391 31.1697883605957 43.24415969848633 30.75332641601562 42.82785797119141 L 30.75354766845703 42.82785797119141 C 30.54538345336914 42.61956024169922 30.27247619628906 42.51541137695312 29.99957275390625 42.51541137695312 M 41.72784805297852 47.84643936157227 C 41.13896942138672 47.84643936157227 40.66157531738281 48.32381820678711 40.66157531738281 48.91269683837891 C 40.66157531738281 49.50157928466797 41.13896942138672 49.97895812988281 41.72784805297852 49.97890853881836 L 48.12497711181641 49.97890853881836 C 48.1251220703125 49.97890853881836 48.12516784667969 49.97890853881836 48.12531280517578 49.97890853881836 C 48.71406173706055 49.97890853881836 49.1914176940918 49.50145721435547 49.19123840332031 48.91263961791992 C 49.19136810302734 48.32383728027344 48.71408843994141 47.84648895263672 48.12532806396484 47.84648895263672 C 48.12522125244141 47.84648895263672 48.12508392333984 47.84648895263672 48.12497711181641 47.84648895263672 L 41.72784805297852 47.84643936157227 M 10.8081169128418 1 L 10.80846786499023 1 L 47.05883026123047 1 C 47.61207580566406 1.001602172851562 48.12982940673828 1.216445922851562 48.51960754394531 1.60498046875 L 59.18102645874023 12.26654052734375 C 59.37307739257812 12.45869827270508 59.52322769165039 12.68309020996094 59.62752532958984 12.93367767333984 C 59.73283767700195 13.18560028076172 59.78658676147461 13.4532585144043 59.78670883178711 13.72778701782227 L 59.78670883178711 67.03810119628906 C 59.78682708740234 67.58979797363281 59.57198715209961 68.10871124267578 59.18175888061523 68.49901580810547 C 58.79153823852539 68.88931274414062 58.27268981933594 69.10425567626953 57.72077941894531 69.10425567626953 L 10.80867767333984 69.10425567626953 C 9.668968200683594 69.10425567626953 8.742198944091797 68.17737579345703 8.742198944091797 67.03810119628906 L 8.742198944091797 3.066146850585938 C 8.742088317871094 2.514450073242188 8.956935882568359 1.995559692382812 9.34716796875 1.605247497558594 C 9.737396240234375 1.214950561523438 10.2562370300293 1 10.8081169128418 1 Z M 44.99266815185547 5.132415771484375 L 12.8742790222168 5.132415771484375 L 12.8742790222168 64.97183990478516 L 55.65495681762695 64.97183990478516 L 55.65495681762695 15.79470062255859 L 47.05881500244141 15.79470062255859 C 46.50660705566406 15.79470062255859 45.98777008056641 15.57973861694336 45.59754943847656 15.18941879272461 C 45.20731735229492 14.79907989501953 44.99250030517578 14.28015899658203 44.99266815185547 13.72823715209961 L 44.99266815185547 5.132415771484375 Z M 52.73268890380859 11.66196060180664 L 49.12497711181641 8.054248809814453 L 49.12497711181641 11.66196060180664 L 52.73268890380859 11.66196060180664 Z M 20.40371704101562 14.86051940917969 L 20.40415954589844 14.86051940917969 L 33.19830703735352 14.86051940917969 C 33.75014877319336 14.86045837402344 34.26906585693359 15.07536697387695 34.65936660766602 15.46564865112305 C 35.04963684082031 15.85590744018555 35.26456832885742 16.37479782104492 35.26456832885742 16.92671966552734 C 35.26456832885742 18.06605911254883 34.337646484375 18.99297714233398 33.19830703735352 18.99297714233398 L 20.40393829345703 18.99292755126953 C 19.85170745849609 18.99292755126953 19.33286666870117 18.77798843383789 18.94264602661133 18.38769912719727 C 18.55241775512695 17.99739837646484 18.33756637573242 17.47850799560547 18.33766937255859 16.92658996582031 C 18.33768844604492 15.78742980957031 19.26451873779297 14.86051940917969 20.40371704101562 14.86051940917969 Z M 20.40393829345703 21.25769805908203 L 48.12497711181641 21.25775909423828 C 48.67720794677734 21.25775909423828 49.19606018066406 21.47269821166992 49.58626556396484 21.86298751831055 C 49.97649765014648 22.25328826904297 50.19134521484375 22.77219009399414 50.19123840332031 23.3241081237793 C 50.19140625 23.87554931640625 49.97657775878906 24.39450073242188 49.58631896972656 24.78485870361328 C 49.19608688354492 25.17519760131836 48.67721557617188 25.39016723632812 48.12530517578125 25.39016723632812 L 20.40393829345703 25.39016723632812 C 19.85207748413086 25.39022064208984 19.33317947387695 25.17530822753906 18.94287872314453 24.78503799438477 C 18.55260848999023 24.39477920532227 18.33766937255859 23.87588882446289 18.33766937255859 23.32395935058594 C 18.33766937255859 22.18461990356445 19.26458740234375 21.25769805908203 20.40393829345703 21.25769805908203 Z M 20.40393829345703 27.65482711791992 L 48.12497711181641 27.65488815307617 C 48.67701721191406 27.65488815307617 49.19597625732422 27.86985015869141 49.58623504638672 28.26015853881836 C 49.97647857666016 28.65044784545898 50.19132995605469 29.1693115234375 50.19123840332031 29.72121810913086 L 50.19123840332031 29.72121810913086 L 50.19123840332031 29.72137069702148 C 50.19123840332031 29.721435546875 50.19123840332031 29.72146224975586 50.19123840332031 29.72152709960938 C 50.19111633300781 30.86050796508789 49.26434707641602 31.78730010986328 48.12530517578125 31.78730010986328 L 20.40393829345703 31.78730010986328 C 19.85207748413086 31.78734970092773 19.33317947387695 31.57243728637695 18.94288635253906 31.18216705322266 C 18.55260848999023 30.79190826416016 18.33766937255859 30.27301788330078 18.33766937255859 29.72108840942383 C 18.33766937255859 28.58174896240234 19.26458740234375 27.65482711791992 20.40393829345703 27.65482711791992 Z M 26.80123901367188 34.05197906494141 L 26.80243682861328 34.05197906494141 L 26.80674743652344 34.0519905090332 C 28.27530670166016 34.05444717407227 29.67662811279297 34.75559997558594 30.55766677856445 35.92753982543945 C 30.65673828125 36.05830001831055 30.8172492980957 36.13813018798828 30.98480606079102 36.13813018798828 C 31.01120758056641 36.13813018798828 31.03791809082031 36.13615036010742 31.06417846679688 36.13225936889648 C 31.26376724243164 36.10309982299805 31.46490859985352 36.0884895324707 31.664306640625 36.0884895324707 C 31.6889533996582 36.0884895324707 31.71359634399414 36.08871841430664 31.73823928833008 36.08915710449219 C 33.09095764160156 36.09486770629883 34.37661743164062 36.68214797973633 35.26652908325195 37.70126724243164 C 36.15829849243164 38.72246932983398 36.56687927246094 40.07892608642578 36.38747787475586 41.42282104492188 L 36.38407897949219 41.44828033447266 L 36.37937927246094 41.47352981567383 C 36.37591171264648 41.49210739135742 36.37390518188477 41.51108551025391 36.37338638305664 41.53000640869141 C 36.37544631958008 41.69971466064453 36.45748138427734 41.86104583740234 36.59368896484375 41.96260070800781 L 36.59661865234375 41.96477890014648 L 36.59952545166016 41.96697998046875 C 37.75373840332031 42.84075164794922 38.4502067565918 44.22661972045898 38.46257781982422 45.67418670654297 C 38.47486114501953 47.10956573486328 37.81350708007812 48.49585723876953 36.69181060791016 49.39010238647461 C 36.65883636474609 49.41972351074219 36.62210464477539 49.45201873779297 36.58044815063477 49.48420715332031 L 36.57776641845703 49.48627853393555 L 36.57507705688477 49.48832702636719 C 36.44791793823242 49.58523941040039 36.37258911132812 49.73854827880859 36.37355804443359 49.89842987060547 C 36.37358856201172 49.91117095947266 36.37428665161133 49.91926956176758 36.37565612792969 49.92720794677734 L 36.37707901000977 49.93544769287109 L 36.37836837768555 49.94371032714844 C 36.41456604003906 50.17674255371094 36.43081283569336 50.41438674926758 36.42666625976562 50.65021514892578 C 36.42421340942383 51.71814727783203 36.05400466918945 52.7464599609375 35.39197158813477 53.56641387939453 L 38.01378631591797 59.19240951538086 C 38.29283905029297 59.791748046875 38.26729583740234 60.49395751953125 37.94561004638672 61.07114028930664 C 37.62388610839844 61.64834976196289 37.04006958007812 62.03939819335938 36.38387680053711 62.11722946166992 L 33.71418762207031 62.43210601806641 L 31.75992584228516 64.27629852294922 C 31.37433624267578 64.63964080810547 30.87091827392578 64.83946228027344 30.34186935424805 64.83946228027344 C 30.21206665039062 64.83946228027344 30.08158874511719 64.82711029052734 29.95402908325195 64.80274200439453 C 29.30474853515625 64.67872619628906 28.74981689453125 64.24723815917969 28.46964645385742 63.64849090576172 L 26.80150604248047 60.07827758789062 L 25.13359832763672 63.64796829223633 C 24.85421752929688 64.24708557128906 24.29915618896484 64.67942047119141 23.64912796020508 64.80377197265625 C 23.52135848999023 64.82820892333984 23.39069747924805 64.84059906005859 23.26075744628906 64.84059906005859 C 22.73121643066406 64.84059906005859 22.22747802734375 64.64044189453125 21.84231948852539 64.27699279785156 L 19.88804626464844 62.43278503417969 L 17.21900939941406 62.11798095703125 C 16.56218719482422 62.04007720947266 15.97835922241211 61.64901733398438 15.65664672851562 61.07183074951172 C 15.33493804931641 60.49465942382812 15.30938720703125 59.79243850708008 15.58830642700195 59.19338989257812 L 18.20595932006836 53.57598876953125 C 17.38924789428711 52.57918167114258 17.02379608154297 51.28290557861328 17.21750640869141 49.98052978515625 L 17.22047805786133 49.96054840087891 L 17.22425842285156 49.94071960449219 C 17.22706604003906 49.92595672607422 17.22855758666992 49.91085052490234 17.22870635986328 49.89580917358398 C 17.22968673706055 49.73910903930664 17.15435791015625 49.58581924438477 17.02715682983398 49.48894882202148 L 17.01749801635742 49.48159027099609 L 17.00801849365234 49.4739990234375 C 16.96571350097656 49.44011688232422 16.92724609375 49.40740966796875 16.89150238037109 49.37488555908203 C 15.77641677856445 48.476806640625 15.12234115600586 47.0906982421875 15.13965606689453 45.65796661376953 C 15.15715789794922 44.21100616455078 15.85819625854492 42.82807922363281 17.01493835449219 41.95864105224609 C 17.14835739135742 41.8577880859375 17.22918701171875 41.69513702392578 17.22899627685547 41.52517700195312 C 17.22898864746094 41.51670837402344 17.22825622558594 41.50818634033203 17.2268180847168 41.49981689453125 L 17.22548675537109 41.49206924438477 L 17.22427749633789 41.48429107666016 C 17.18795013427734 41.25113677978516 17.17168807983398 41.01335525512695 17.17591857910156 40.77735137939453 C 17.1816520690918 39.42449569702148 17.76905822753906 38.13885498046875 18.78841781616211 37.24890899658203 C 19.64677810668945 36.49954986572266 20.74690628051758 36.08686828613281 21.88618850708008 36.08686828613281 C 22.09427642822266 36.08686828613281 22.30443954467773 36.10086822509766 22.51083755493164 36.12847900390625 L 22.53255844116211 36.13137817382812 L 22.55413818359375 36.13523864746094 C 22.57489395141602 36.13895034790039 22.5960807800293 36.1411018371582 22.61719512939453 36.14164733886719 C 22.78687286376953 36.13954925537109 22.94811630249023 36.05747604370117 23.04959869384766 35.92123031616211 L 23.05193710327148 35.91808700561523 L 23.05429840087891 35.91497039794922 C 23.93740844726562 34.74842071533203 25.33813858032227 34.05197906494141 26.80123901367188 34.05197906494141 Z M 27.26834106445312 38.43008804321289 C 27.15279388427734 38.29187393188477 26.98390579223633 38.21236419677734 26.80333709716797 38.21157073974609 C 26.80332565307617 38.21157073974609 26.80331420898438 38.21157073974609 26.80330276489258 38.21157073974609 C 26.62337493896484 38.21157073974609 26.45663452148438 38.28770446777344 26.3406867980957 38.4210205078125 C 25.46197509765625 39.582275390625 24.07126617431641 40.27465057373047 22.61410903930664 40.27465057373047 L 22.61269760131836 40.27465057373047 L 22.60832595825195 40.27465057373047 C 22.3801155090332 40.27399444580078 22.15029144287109 40.25533676147461 21.92478179931641 40.21916198730469 C 21.90746688842773 40.21747207641602 21.88999557495117 40.21662139892578 21.8726692199707 40.21662139892578 C 21.7402458190918 40.21662139892578 21.613037109375 40.2653694152832 21.51447677612305 40.35388946533203 L 21.50911712646484 40.35869979858398 L 21.50369644165039 40.36344146728516 C 21.37985610961914 40.47148132324219 21.30851745605469 40.62770080566406 21.30797958374023 40.79203033447266 L 21.30790710449219 40.81393814086914 L 21.30687713623047 40.83580780029297 C 21.30664825439453 40.8406867980957 21.30656051635742 40.84558868408203 21.30660629272461 40.85050201416016 C 21.3419189453125 41.07174682617188 21.36023712158203 41.29692077636719 21.36106872558594 41.52066040039062 C 21.36423873901367 42.98662948608398 20.6666374206543 44.38534927368164 19.49498748779297 45.26380920410156 C 19.35637664794922 45.36827087402344 19.27206802368164 45.53656005859375 19.27140808105469 45.71253967285156 C 19.270751953125 45.88700485229492 19.35237121582031 46.05453491210938 19.48994827270508 46.16163635253906 C 19.54582214355469 46.20354461669922 19.60000228881836 46.24856185913086 19.6515998840332 46.29594421386719 C 20.7448616027832 47.18410491943359 21.36746597290039 48.49858093261719 21.36117935180664 49.90911102294922 C 21.36047744750977 50.13786315917969 21.34122085571289 50.36933898925781 21.30391693115234 50.59645843505859 C 21.2922248840332 50.72019577026367 21.32448196411133 50.84385299682617 21.39548873901367 50.94630813598633 L 21.39920806884766 50.95166778564453 L 21.40284729003906 50.95707702636719 C 21.45373153686523 51.03257751464844 21.52235412597656 51.09436798095703 21.60246276855469 51.13707733154297 L 21.62793731689453 51.14885711669922 C 21.6796989440918 51.17303466796875 21.73435211181641 51.19026184082031 21.79054260253906 51.20011520385742 C 21.83457946777344 51.20549011230469 21.87929534912109 51.20820617675781 21.92365646362305 51.20820617675781 L 21.93086624145508 51.20815277099609 C 22.15412139892578 51.17298126220703 22.38142395019531 51.15468978881836 22.60735702514648 51.15375900268555 L 22.6171760559082 51.15374755859375 C 24.07820892333984 51.15374755859375 25.47391891479492 51.85147094726562 26.3507194519043 53.02014923095703 L 26.35529708862305 53.02624893188477 L 26.35977935791016 53.03241729736328 C 26.45494842529297 53.16339874267578 26.60841751098633 53.24231719970703 26.77029800415039 53.24354934692383 L 26.78224945068359 53.24363708496094 L 26.794189453125 53.2440185546875 C 26.79986953735352 53.24418640136719 26.80551910400391 53.24427795410156 26.81117630004883 53.24427795410156 C 26.98012542724609 53.24427795410156 27.14194107055664 53.16429138183594 27.24465179443359 53.03016662597656 C 28.1224479675293 51.85507965087891 29.52162170410156 51.15374755859375 30.9885368347168 51.15374755859375 L 30.98989868164062 51.15374755859375 L 30.99379730224609 51.15374755859375 C 31.21976852416992 51.15436553955078 31.4472770690918 51.17269134521484 31.67058181762695 51.20823669433594 C 31.6839599609375 51.20928573608398 31.69740676879883 51.20981979370117 31.71074676513672 51.20981979370117 C 31.73778915405273 51.20981979370117 31.76503753662109 51.20764923095703 31.791748046875 51.203369140625 L 31.80670928955078 51.20096969604492 L 31.82173919677734 51.19902038574219 C 31.86750793457031 51.19309997558594 31.91165924072266 51.1796989440918 31.95295715332031 51.15918731689453 L 31.95987701416016 51.15574645996094 L 31.96684646606445 51.15242004394531 C 32.05516815185547 51.11024856567383 32.13039779663086 51.04480743408203 32.18439865112305 50.96318817138672 L 32.19277954101562 50.95051956176758 L 32.2015495300293 50.9380989074707 C 32.26242828369141 50.85189819335938 32.29433822631836 50.75054931640625 32.29383850097656 50.64501953125 L 32.29370880126953 50.6179084777832 L 32.29504776000977 50.59083938598633 C 32.29517364501953 50.5882568359375 32.29523086547852 50.58566284179688 32.29521560668945 50.58307266235352 C 32.25993347167969 50.36045837402344 32.24161529541016 50.13380432128906 32.24072647094727 49.90860748291016 C 32.23414611816406 48.49015045166016 32.8626823425293 47.17072296142578 33.96671295166016 46.28232955932617 C 34.01197814941406 46.24101638793945 34.05918502807617 46.20146942138672 34.10754776000977 46.16437911987305 C 34.24729919433594 46.05732727050781 34.33041763305664 45.88895797729492 34.33041763305664 45.71358871459961 C 34.33041763305664 45.53961944580078 34.24863052368164 45.37255096435547 34.11141586303711 45.26578521728516 C 33.59043121337891 44.87583160400391 33.16288375854492 44.38325500488281 32.84876251220703 43.82785797119141 L 32.05125427246094 43.82785797119141 C 31.99712753295898 44.28664398193359 31.79204177856445 44.71120452880859 31.46030807495117 45.04281616210938 L 27.19559860229492 49.30742645263672 C 26.80548858642578 49.69766998291016 26.28659820556641 49.91265106201172 25.73463821411133 49.91265106201172 C 25.18267822265625 49.91265106201172 24.66378784179688 49.69766998291016 24.2735481262207 49.30729675292969 L 22.14133834838867 47.17498016357422 C 21.75113677978516 46.78476715087891 21.53622817993164 46.26593780517578 21.53622817993164 45.71408081054688 C 21.53622817993164 45.16220855712891 21.75113677978516 44.64337921142578 22.1413688659668 44.25315093994141 C 22.53158950805664 43.86293792724609 23.05041885375977 43.64802932739258 23.60227584838867 43.64802932739258 C 24.15413665771484 43.64802932739258 24.67296600341797 43.86293792724609 25.06319808959961 44.25315856933594 L 25.73469161987305 44.92465209960938 L 28.53847885131836 42.12076950073242 C 28.92850875854492 41.73047637939453 29.44747924804688 41.51541137695312 29.99956893920898 41.51541137695312 C 30.5516471862793 41.51541137695312 31.07061767578125 41.73046875 31.46087646484375 42.1209716796875 L 32.56079483032227 43.22157287597656 C 32.35155487060547 42.68546295166016 32.24007797241211 42.10946655273438 32.24093627929688 41.52269744873047 C 32.24172973632812 41.2923469543457 32.26074981689453 41.06233978271484 32.29750442504883 40.83671188354492 C 32.30990219116211 40.68954467773438 32.2621955871582 40.54318237304688 32.16511535644531 40.4315185546875 C 32.03792572021484 40.29689025878906 31.85942459106445 40.2198486328125 31.67402648925781 40.2198486328125 L 31.66783142089844 40.21990585327148 C 31.44577026367188 40.25192260742188 31.22002410888672 40.26815032958984 30.99620819091797 40.26815032958984 C 29.54449844360352 40.26815032958984 28.15241622924805 39.58143615722656 27.26834106445312 38.43008804321289 Z M 23.95155715942383 56.41246795654297 C 23.90729522705078 56.38255310058594 23.85903549194336 56.34745788574219 23.80893707275391 56.30582809448242 C 23.52224731445312 56.06901931762695 23.26247787475586 55.79541015625 23.03913879394531 55.49448776245117 L 23.03138732910156 55.48404693603516 L 23.02390670776367 55.4734001159668 C 22.93996810913086 55.35393905639648 22.80278778076172 55.28260803222656 22.65694808959961 55.28260803222656 C 22.63160705566406 55.28260803222656 22.6059684753418 55.28480911254883 22.58074951171875 55.28913879394531 C 22.36967086791992 55.32537078857422 22.1541633605957 55.34393310546875 21.94002914428711 55.34434127807617 L 20.54028701782227 58.34733963012695 L 21.05033874511719 58.40737915039062 C 21.48839950561523 58.45925903320312 21.90583801269531 58.65406036376953 22.22646713256836 58.95597839355469 L 22.59916305541992 59.30770111083984 L 23.95155715942383 56.41246795654297 Z M 31.65944671630859 55.34212875366211 C 31.47338485717773 55.33991622924805 31.28610229492188 55.32618713378906 31.10193634033203 55.30122756958008 L 31.08052825927734 55.2983283996582 L 31.05926895141602 55.29450988769531 C 31.03402328491211 55.28997039794922 31.00827789306641 55.28726196289062 30.98260498046875 55.28643798828125 C 30.81376647949219 55.28916931152344 30.65349578857422 55.3711051940918 30.55249786376953 55.50674819946289 C 30.33093643188477 55.80482864379883 30.07259750366211 56.07624816894531 29.78514862060547 56.31277847290039 C 29.73837280273438 56.35147857666016 29.69283294677734 56.38463592529297 29.65068817138672 56.41321563720703 L 31.00286865234375 59.30763244628906 L 31.37456893920898 58.956787109375 C 31.69590759277344 58.65415954589844 32.11323928833008 58.4593505859375 32.55047607421875 58.40748977661133 L 33.06023406982422 58.34735107421875 L 31.65944671630859 55.34212875366211 Z M 41.72784805297852 34.05207061767578 L 41.72785949707031 34.05207061767578 L 48.1249885559082 34.05212783813477 C 48.6772575378418 34.05212783813477 49.19609832763672 34.2670783996582 49.58630752563477 34.65736770629883 C 49.97652816772461 35.04766845703125 50.19136047363281 35.56657791137695 50.19123840332031 36.11849975585938 C 50.19140625 36.66991806030273 49.97657775878906 37.18886947631836 49.58632659912109 37.57921981811523 C 49.19608688354492 37.96957015991211 48.67721557617188 38.18453979492188 48.12530517578125 38.18453979492188 L 41.72784805297852 38.18453979492188 C 41.17598724365234 38.18458938598633 40.65708923339844 37.96967697143555 40.26678848266602 37.57941055297852 C 39.87651824951172 37.18914794921875 39.66157531738281 36.67025756835938 39.66157531738281 36.11832809448242 C 39.66157531738281 34.97898864746094 40.58849716186523 34.05207061767578 41.72784805297852 34.05207061767578 Z M 41.72784805297852 40.44935607910156 L 48.12497711181641 40.44935607910156 C 48.67720794677734 40.44935607910156 49.19606018066406 40.66429901123047 49.58627700805664 41.05458831787109 C 49.97651672363281 41.44490051269531 50.19136047363281 41.96380615234375 50.19123840332031 42.51573944091797 C 50.19123840332031 43.65480041503906 49.26446533203125 44.58166885375977 48.12530517578125 44.58166885375977 L 41.72784805297852 44.58166885375977 C 40.58856964111328 44.58166885375977 39.66169738769531 43.65480041503906 39.66169738769531 42.51551818847656 C 39.66169738769531 41.37623977661133 40.58856964111328 40.44935607910156 41.72784805297852 40.44935607910156 Z M 41.72784805297852 46.84643936157227 L 41.72785949707031 46.84643936157227 L 48.1249885559082 46.84648895263672 C 48.67722702026367 46.84648895263672 49.19607543945312 47.06142807006836 49.58629608154297 47.45172882080078 C 49.97651672363281 47.8420295715332 50.19136047363281 48.36093902587891 50.19123840332031 48.91285705566406 C 50.19140625 49.46427917480469 49.97657775878906 49.98323059082031 49.58632659912109 50.37358856201172 C 49.19608688354492 50.76393890380859 48.67722702026367 50.97890853881836 48.12530517578125 50.97890853881836 L 41.72784805297852 50.97890853881836 C 41.17598724365234 50.97895812988281 40.65708923339844 50.7640495300293 40.26678848266602 50.373779296875 C 39.87651824951172 49.9835205078125 39.66157531738281 49.46463012695312 39.66157531738281 48.91269683837891 C 39.66157531738281 47.77336120605469 40.58849716186523 46.84643936157227 41.72784805297852 46.84643936157227 Z" stroke="none" fill="#22975f"/>
    </g>
  </g>
</svg>
