<svg id="COnfidence" xmlns="http://www.w3.org/2000/svg" width="94.527" height="95.362" viewBox="0 0 94.527 95.362">
  <path id="Path_996" data-name="Path 996" d="M13.277,63.406a1.6,1.6,0,0,0,2.432-.207l1.875-2.654V89.3a1.589,1.589,0,0,0,1.589,1.589h9.536A1.589,1.589,0,0,0,30.3,89.3V63.867H41.424v7.947H36.656A1.589,1.589,0,0,0,35.067,73.4V89.3a1.589,1.589,0,0,0,1.589,1.589H68.444A1.589,1.589,0,0,0,70.033,89.3V73.4a1.589,1.589,0,0,0-1.589-1.589h-14.3V59.1a7.947,7.947,0,0,0-7.947-7.947H36.656V42.426L58.24,27.009a1.575,1.575,0,0,0,.35-2.241l-4.768-6.357a1.589,1.589,0,0,0-2.177-.35L35.353,29.33a11.126,11.126,0,1,0-17.594,2.75H15.995a1.589,1.589,0,0,0-1.176.524L4.551,44.016a7.947,7.947,0,0,0,.318,10.935ZM17.584,52.28l-2.543-2.718,2.543-2.543Zm49.27,35.427H38.246V74.993H66.854ZM29.313,35.258,27.12,39.645l-2.193-4.387ZM17.584,24.133a7.947,7.947,0,1,1,7.947,7.947A7.947,7.947,0,0,1,17.584,24.133ZM6.9,46.145,16.71,35.258h4.657l4.339,8.662a1.589,1.589,0,0,0,2.829,0l4.593-9.171L52.2,21.542l2.877,3.83L34.145,40.328a1.589,1.589,0,0,0-.668,1.287V52.741a1.589,1.589,0,0,0,1.589,1.589H46.193A4.768,4.768,0,0,1,50.961,59.1V71.814H44.6V62.278a1.589,1.589,0,0,0-1.589-1.589h-14.3a1.589,1.589,0,0,0-1.589,1.589v25.43H20.763v-44.5a1.6,1.6,0,0,0-2.718-1.128l-6.357,6.357a1.589,1.589,0,0,0,0,2.225l5.2,5.42L14.2,59.83l-7.12-7.089a4.768,4.768,0,0,1-.175-6.6Z" transform="translate(-2.526 4.476)" fill="#642273"/>
  <path id="Path_997" data-name="Path 997" d="M71.019,14.715A11.126,11.126,0,0,1,59.894,3.589a1.589,1.589,0,1,0-3.179,0A11.126,11.126,0,0,1,45.589,14.715a1.589,1.589,0,0,0,0,3.179A11.126,11.126,0,0,1,56.715,29.019a1.589,1.589,0,1,0,3.179,0A11.126,11.126,0,0,1,71.019,17.894a1.589,1.589,0,0,0,0-3.179ZM58.3,22.471A14.431,14.431,0,0,0,52.138,16.3,14.432,14.432,0,0,0,58.3,10.138,14.431,14.431,0,0,0,64.471,16.3,14.431,14.431,0,0,0,58.3,22.471Z" transform="translate(21.918 -2)" fill="#642273"/>
  <rect id="Rectangle_144" data-name="Rectangle 144" width="5.372" height="3.179" transform="matrix(0.806, -0.591, 0.591, 0.806, 49.086, 43.216)" fill="#642273"/>
  <rect id="Rectangle_145" data-name="Rectangle 145" width="19.708" height="3.179" transform="matrix(0.806, -0.592, 0.592, 0.806, 57.042, 37.396)" fill="#642273"/>
  <rect id="Rectangle_146" data-name="Rectangle 146" width="11.459" height="3.179" transform="matrix(0.832, -0.555, 0.555, 0.832, 57.086, 24.104)" fill="#642273"/>
</svg>
