<svg xmlns="http://www.w3.org/2000/svg" width="95.097" height="95.362" viewBox="0 0 95.097 95.362">
  <g id="Critical_Thinking" data-name="Critical Thinking" transform="translate(-0.206)">
    <g id="Group_759" data-name="Group 759" transform="translate(0 0)">
      <path id="Path_998" data-name="Path 998" d="M59.837,31.8A28.318,28.318,0,0,0,56.1,18.867a1.595,1.595,0,1,0-2.765,1.589,25.108,25.108,0,0,1,3.321,11.807,1.589,1.589,0,0,0,.286.842l8.422,19.817H58.248a1.589,1.589,0,0,0-1.589,1.589V56.1A17.481,17.481,0,0,1,39.178,73.581H37.589A1.589,1.589,0,0,0,36,75.17V86.294a1.589,1.589,0,1,0,3.178,0V76.759A20.659,20.659,0,0,0,59.837,56.1h7.946a1.589,1.589,0,0,0,1.462-2.209Z" transform="translate(18.236 7.478)" fill="#e8ba38"/>
      <path id="Path_999" data-name="Path 999" d="M16.847,32.55a1.594,1.594,0,1,0-3.051.922A29.51,29.51,0,0,0,20.39,44.9L14.161,78.143a1.589,1.589,0,0,0,1.271,1.843l.318.032a1.589,1.589,0,0,0,1.589-1.3L23.7,44.691a1.589,1.589,0,0,0-.429-1.414,26.2,26.2,0,0,1-6.42-10.727Z" transform="translate(5.114 15.344)" fill="#e8ba38"/>
      <path id="Path_1000" data-name="Path 1000" d="M11.9,38.4a1.589,1.589,0,0,0,1.383-2.86,14.291,14.291,0,0,1,6.2-27.174,14.588,14.588,0,0,1,4.37.683,1.589,1.589,0,0,0,1.383-.207,20.659,20.659,0,0,1,27.381,3.544,1.589,1.589,0,0,0,1.971.35,9.535,9.535,0,1,1,7.8,17.338,1.659,1.659,0,0,0-.953,2.209A8.724,8.724,0,0,1,49.07,43.624a1.589,1.589,0,0,0-1.589,0A20.659,20.659,0,0,1,19.989,37.6a1.592,1.592,0,0,0-2.606,1.828A23.837,23.837,0,0,0,48.276,46.8a11.9,11.9,0,0,0,17.29-10.631,11.632,11.632,0,0,0-.62-3.766A12.713,12.713,0,0,0,54.187,9.394,23.837,23.837,0,0,0,23.994,5.8,17.457,17.457,0,0,0,11.9,38.4Z" transform="translate(-1.794 -1.992)" fill="#e8ba38"/>
      <path id="Path_1001" data-name="Path 1001" d="M25,25.767A4.767,4.767,0,1,0,29.767,21,4.767,4.767,0,0,0,25,25.767Zm6.357,0a1.589,1.589,0,1,1-1.589-1.589A1.589,1.589,0,0,1,31.357,25.767Z" transform="translate(11.756 9.207)" fill="#e8ba38"/>
      <path id="Path_1002" data-name="Path 1002" d="M10.464,25.076a1.589,1.589,0,0,0,2.257,0l2.05-2.066,2.05,2.066a1.6,1.6,0,1,0,2.257-2.257l-2.066-2.05,2.066-2.05a1.6,1.6,0,0,0-2.257-2.257l-2.05,2.066-2.05-2.066a1.6,1.6,0,0,0-2.257,2.257l2.066,2.05-2.066,2.05a1.589,1.589,0,0,0,0,2.257Z" transform="translate(2.915 6.259)" fill="#e8ba38"/>
      <path id="Path_1003" data-name="Path 1003" d="M16.935,32.569a1.586,1.586,0,1,0,1.3,2.892A25.665,25.665,0,0,0,33.383,14.167l1.907,3.178a1.589,1.589,0,0,0,2.733-1.621L33.255,7.779a1.589,1.589,0,0,0-2.733,0l-4.767,7.946a1.589,1.589,0,1,0,2.733,1.589l1.589-2.749A22.534,22.534,0,0,1,16.935,32.569Z" transform="translate(6.456 0.959)" fill="#e8ba38"/>
      <path id="Path_1004" data-name="Path 1004" d="M31.464,21.076a1.589,1.589,0,0,0,2.257,0l2.05-2.066,2.05,2.066a1.6,1.6,0,1,0,2.257-2.257l-2.066-2.05,2.066-2.05a1.6,1.6,0,0,0-2.257-2.257l-2.05,2.066-2.05-2.066a1.6,1.6,0,1,0-2.257,2.257l2.066,2.05-2.066,2.05a1.589,1.589,0,0,0,0,2.257Z" transform="translate(15.287 3.902)" fill="#e8ba38"/>
      <path id="Path_1005" data-name="Path 1005" d="M17.767,8a4.767,4.767,0,1,0,4.767,4.767A4.767,4.767,0,0,0,17.767,8Zm0,6.357a1.589,1.589,0,1,1,1.589-1.589A1.589,1.589,0,0,1,17.767,14.357Z" transform="translate(4.686 1.548)" fill="#e8ba38"/>
      <path id="Path_1006" data-name="Path 1006" d="M28.357,34a6.357,6.357,0,1,0,6.357,6.357A6.357,6.357,0,0,0,28.357,34Zm0,9.535a3.178,3.178,0,1,1,3.178-3.178A3.178,3.178,0,0,1,28.357,43.535Z" transform="translate(9.988 16.866)" fill="#e8ba38"/>
      <path id="Path_1007" data-name="Path 1007" d="M33.767,42a4.767,4.767,0,1,0,4.767,4.767A4.767,4.767,0,0,0,33.767,42Zm0,6.357a1.589,1.589,0,1,1,1.589-1.589A1.589,1.589,0,0,1,33.767,48.357Z" transform="translate(14.112 21.579)" fill="#e8ba38"/>
      <path id="Path_1008" data-name="Path 1008" d="M18.892,45.946A7.946,7.946,0,1,0,6.179,52.3v1.589H4.589a1.589,1.589,0,0,0,0,3.178H6.179v1.589a4.767,4.767,0,0,0,9.535,0V57.07H17.3a1.589,1.589,0,0,0,0-3.178H15.713V52.3A7.946,7.946,0,0,0,18.892,45.946Zm-7.946-4.767a4.749,4.749,0,0,1,2.384,8.867,1.589,1.589,0,0,0-.795,1.383v2.463H9.357V51.429a1.589,1.589,0,0,0-.795-1.383,4.749,4.749,0,0,1,2.384-8.867Zm1.589,17.481a1.589,1.589,0,0,1-3.178,0V57.07h3.178Z" transform="translate(-1.206 19.222)" fill="#e8ba38"/>
      <path id="Path_1009" data-name="Path 1009" d="M65.892,14.946A7.946,7.946,0,1,0,53.179,21.3v1.589H51.589a1.589,1.589,0,1,0,0,3.178h1.589v1.589a4.767,4.767,0,1,0,9.535,0V26.07H64.3a1.589,1.589,0,0,0,0-3.178H62.713V21.3A7.946,7.946,0,0,0,65.892,14.946Zm-7.946-4.767a4.749,4.749,0,0,1,2.384,8.867,1.589,1.589,0,0,0-.795,1.383v2.463H56.357V20.429a1.589,1.589,0,0,0-.795-1.383,4.749,4.749,0,0,1,2.384-8.867Zm1.589,17.481a1.589,1.589,0,0,1-3.178,0V26.07h3.178Z" transform="translate(26.484 0.958)" fill="#e8ba38"/>
      <ellipse id="Ellipse_33" data-name="Ellipse 33" cx="2" cy="1" rx="2" ry="1" transform="translate(82.303 1.632)" fill="#e8ba38"/>
      <circle id="Ellipse_34" data-name="Ellipse 34" cx="2" cy="2" r="2" transform="translate(91.303 3.632)" fill="#e8ba38"/>
      <ellipse id="Ellipse_35" data-name="Ellipse 35" cx="1.5" cy="2" rx="1.5" ry="2" transform="translate(75.303 3.632)" fill="#e8ba38"/>
      <ellipse id="Ellipse_36" data-name="Ellipse 36" cx="1.5" cy="1" rx="1.5" ry="1" transform="translate(8.303 49.632)" fill="#e8ba38"/>
      <ellipse id="Ellipse_37" data-name="Ellipse 37" cx="1.5" cy="2" rx="1.5" ry="2" transform="translate(16.303 51.632)" fill="#e8ba38"/>
      <ellipse id="Ellipse_38" data-name="Ellipse 38" cx="1.5" cy="2" rx="1.5" ry="2" transform="translate(0.303 51.632)" fill="#e8ba38"/>
      <ellipse id="Ellipse_39" data-name="Ellipse 39" cx="1.5" cy="2" rx="1.5" ry="2" transform="translate(20.303 61.632)" fill="#e8ba38"/>
    </g>
  </g>
</svg>
