<svg id="Emotional" xmlns="http://www.w3.org/2000/svg" width="85.46" height="90.65" viewBox="0 0 85.46 90.65">
  <g id="Group_761" data-name="Group 761" transform="translate(0 0)">
    <path id="Path_1010" data-name="Path 1010" d="M56.133,9.763C50.654,3.906,42.258,3.377,37.382,8.585l-3.086,3.3-3.085-3.3C26.335,3.378,17.938,3.906,12.456,9.763s-5.976,14.824-1.1,20.032L25.472,44.874,34.3,54.3l8.814-9.414s.007,0,.01-.013L57.236,29.8C62.111,24.59,61.614,15.619,56.133,9.763Z" transform="translate(-8 -5)" fill="#e07e26"/>
    <g id="Group_760" data-name="Group 760" transform="translate(3.287 3.288)">
      <path id="Path_1011" data-name="Path 1011" d="M61.574,24.34a3.287,3.287,0,0,0-3.287-3.287h0A3.287,3.287,0,0,0,55,24.34h0a3.287,3.287,0,0,0,3.287,3.287h0a3.287,3.287,0,0,0,3.287-3.287Z" transform="translate(18.955 2.042)" fill="#e07e26"/>
      <path id="Path_1012" data-name="Path 1012" d="M57.574,16.34a3.287,3.287,0,0,0-3.287-3.287h0A3.287,3.287,0,0,0,51,16.34h0a3.287,3.287,0,0,0,3.287,3.287h0a3.287,3.287,0,0,0,3.287-3.287Z" transform="translate(16.381 -3.105)" fill="#e07e26"/>
      <path id="Path_1013" data-name="Path 1013" d="M50.574,10.287A3.287,3.287,0,0,0,47.287,7h0A3.287,3.287,0,0,0,44,10.287h0a3.287,3.287,0,0,0,3.287,3.287h0a3.287,3.287,0,0,0,3.287-3.287Z" transform="translate(11.877 -7)" fill="#e07e26"/>
      <path id="Path_1014" data-name="Path 1014" d="M76.73,29H70.156V42.148h-11.5V58.669a3.756,3.756,0,0,1-3.287,3.2H37.287a3.287,3.287,0,1,0,0,6.574h4.93v11.5h6.574v-11.5h6.574c5.068,0,9.861-4.705,9.861-9.774V48.721h11.5Z" transform="translate(5.443 7.156)" fill="#e07e26"/>
      <rect id="Rectangle_147" data-name="Rectangle 147" width="7" height="25" transform="translate(11.181 62.362)" fill="#e07e26"/>
      <path id="Path_1015" data-name="Path 1015" d="M61.574,24.287A3.287,3.287,0,0,0,58.287,21h0A3.287,3.287,0,0,0,55,24.287h0a3.287,3.287,0,0,0,3.287,3.287h0a3.287,3.287,0,0,0,3.287-3.287Z" transform="translate(18.955 2.008)" fill="#e07e26"/>
      <path id="Path_1016" data-name="Path 1016" d="M16.574,33.287A3.287,3.287,0,0,0,13.287,30h0A3.287,3.287,0,0,0,10,33.287h0a3.287,3.287,0,0,0,3.287,3.287h0a3.287,3.287,0,0,0,3.287-3.287Z" transform="translate(-10 7.799)" fill="#e07e26"/>
      <path id="Path_1017" data-name="Path 1017" d="M19.574,41.287A3.287,3.287,0,0,0,16.287,38h0A3.287,3.287,0,0,0,13,41.287h0a3.287,3.287,0,0,0,3.287,3.287h0a3.287,3.287,0,0,0,3.287-3.287Z" transform="translate(-8.07 12.947)" fill="#e07e26"/>
      <path id="Path_1018" data-name="Path 1018" d="M57.574,16.287A3.287,3.287,0,0,0,54.287,13h0A3.287,3.287,0,0,0,51,16.287h0a3.287,3.287,0,0,0,3.287,3.287h0a3.287,3.287,0,0,0,3.287-3.287Z" transform="translate(16.381 -3.139)" fill="#e07e26"/>
      <path id="Path_1019" data-name="Path 1019" d="M47.574,29A6.576,6.576,0,0,0,41,35.574H54.148A6.576,6.576,0,0,0,47.574,29Z" transform="translate(9.947 7.156)" fill="#e07e26"/>
    </g>
  </g>
</svg>
