<svg id="Grammar" xmlns="http://www.w3.org/2000/svg" width="87.066" height="94.419" viewBox="0 0 87.066 94.419">
  <path id="Path_1020" data-name="Path 1020" d="M93.858,53.177a2.428,2.428,0,0,0-.705-1.814L77.837,35.242a2.524,2.524,0,0,0-3.527-.1l-13.2,12.7-5.441-5.743A23.671,23.671,0,0,0,38.137,3.2c-13.1-.3-23.477,10.076-23.78,23.175A22.188,22.188,0,0,0,19.8,42.195,30.029,30.029,0,1,0,57.584,88.645l3.124-3.023,10.58,11.184A2.483,2.483,0,0,0,73,97.613h0a2.428,2.428,0,0,0,1.814-.705L90.129,82.3a2.524,2.524,0,0,0,.1-3.527L79.751,67.586l13.3-12.7A2.483,2.483,0,0,0,93.858,53.177ZM56.072,27.383a19.453,19.453,0,0,1-3.93,11.084l-25.593-27A19.806,19.806,0,0,1,37.834,8.137,18.778,18.778,0,0,1,56.072,27.383ZM54.158,85.018a25.069,25.069,0,1,1-31.034-39.1L57.382,82ZM73.2,91.567,24.332,39.776a18.792,18.792,0,0,1-5.139-13.4A18.484,18.484,0,0,1,23.325,15.09L85.091,80.282Zm3.124-27.608L64.435,51.465,75.922,40.582l11.89,12.494Z" transform="translate(-6.791 -3.194)" fill="#0a8f95"/>
</svg>
