<svg xmlns="http://www.w3.org/2000/svg" width="67.297" height="67.297" viewBox="0 0 67.297 67.297">
  <g id="Group_18" data-name="Group 18" transform="translate(-630.609 -249.243)">
    <path id="Path_31" data-name="Path 31" d="M649.121,279.684l8.56-4.5,8.56,4.5-1.635-9.533,6.925-6.751-9.571-1.391-4.279-8.673L653.4,262.01,643.83,263.4l6.925,6.751Zm6.86-14.123,1.7-3.447,1.7,3.447,3.8.552-2.75,2.682.649,3.788-3.4-1.789-3.4,1.789.651-3.788-2.752-2.682Z" transform="translate(6.577 1.858)" stroke="#22975f" stroke-width="1"/>
    <path id="Path_32" data-name="Path 32" d="M640.821,257.642a9.712,9.712,0,0,0,0,19.424h2.755A21.516,21.516,0,0,0,658.431,291.8v8.568H651.2l-3.885,11.782h-4.422v3.885h42.731v-3.885H681.2l-3.885-11.782h-7.231V291.8a21.452,21.452,0,0,0,14.73-14.73h2.879a9.712,9.712,0,1,0,0-19.424h-2.071v-4.014h4.014v-3.885H638.879v3.885h3.883v4.014Zm0,15.539a5.827,5.827,0,0,1,0-11.654h1.942v9.71c0,.655.032,1.3.089,1.943Zm36.289,38.974H651.4l2.6-7.9h20.5ZM666.2,300.372h-3.885v-7.858q.96.087,1.943.088t1.942-.088Zm21.494-38.846a5.827,5.827,0,1,1,0,11.654h-2.16c.058-.64.089-1.288.089-1.943v-9.71Zm-5.956-7.9v17.609a17.546,17.546,0,0,1-35.091,0V253.628Z" transform="translate(0 0)" stroke="#22975f" stroke-width="1"/>
  </g>
</svg>
