<svg xmlns="http://www.w3.org/2000/svg" width="62.077" height="62.961" viewBox="0 0 62.077 62.961">
  <g id="Group_12" data-name="Group 12" transform="translate(-178.779 -240.857)">
    <g id="Group_11" data-name="Group 11" transform="translate(-9.132 -7.143)">
      <path id="Path_10" data-name="Path 10" d="M212.492,264.005a8.946,8.946,0,1,0,8.946,8.946A8.956,8.956,0,0,0,212.492,264.005Zm0,14.315a5.368,5.368,0,1,1,5.368-5.368A5.374,5.374,0,0,1,212.492,278.32Z" transform="translate(6.457 6.473)" stroke="#80418f" stroke-width="1"/>
      <path id="Path_11" data-name="Path 11" d="M210.574,273.563l-2.531-2.531,2.531-2.529,2.531,2.529Z" transform="translate(8.376 8.392)" stroke="#80418f" stroke-width="1"/>
      <path id="Path_12" data-name="Path 12" d="M232.77,290.984a51.82,51.82,0,0,0-.5-10.74,56.067,56.067,0,0,0-10.937-25.334l-4.558-6.077-4.558,6.077a56.051,56.051,0,0,0-10.937,25.334,51.722,51.722,0,0,0-.5,10.74,17.491,17.491,0,0,0-7.266,14.191v4.8l3.716-2.723a15.985,15.985,0,0,1,6.162-2.432c.678,2.111,1.178,3.318,1.857,5.16,1.181-.79,4.017-4.293,9.738-4.979v4.963h3.578V305c5.736.688,8.568,4.2,9.738,4.979.683-1.855,1.18-3.049,1.857-5.16a16,16,0,0,1,6.162,2.432l3.715,2.723v-4.8A17.5,17.5,0,0,0,232.77,290.984Zm-35.529,12.126A13.8,13.8,0,0,1,201.2,295.3a55.551,55.551,0,0,0,1.194,6.066A19.636,19.636,0,0,0,197.242,303.111Zm29.374,1.027a18.511,18.511,0,0,0-8.053-2.736v-9.333h-3.579V301.4a18.51,18.51,0,0,0-8.053,2.736c-5.338-16.274-2.482-32.907,8.149-47.08l1.695-2.26,1.695,2.26C229.1,271.231,231.954,287.864,226.616,304.138Zm4.537-2.776a55.882,55.882,0,0,0,1.2-6.066,13.8,13.8,0,0,1,3.957,7.815A19.629,19.629,0,0,0,231.153,301.361Z" transform="translate(2.176 0)" stroke="#80418f" stroke-width="1"/>
      <path id="Path_13" data-name="Path 13" d="M188.411,258.988h10.855v3.578H188.411Z" transform="translate(0 4.332)" stroke="#80418f" stroke-width="1"/>
      <path id="Path_14" data-name="Path 14" d="M223.614,258.988h10.855v3.578H223.614Z" transform="translate(15.019 4.332)" stroke="#80418f" stroke-width="1"/>
      <path id="Path_15" data-name="Path 15" d="M191.474,250.094l9.731,4.537-1.512,3.244-9.731-4.538Z" transform="translate(0.662 0.538)" stroke="#80418f" stroke-width="1"/>
      <path id="Path_16" data-name="Path 16" d="M231.521,272.718l-9.73-4.538,1.512-3.243,9.73,4.537Z" transform="translate(14.241 6.87)" stroke="#80418f" stroke-width="1"/>
      <path id="Path_17" data-name="Path 17" d="M189.962,269.473l9.73-4.537,1.512,3.244-9.73,4.537Z" transform="translate(0.662 6.87)" stroke="#80418f" stroke-width="1"/>
      <path id="Path_18" data-name="Path 18" d="M231.522,250.094l1.512,3.243-9.731,4.537-1.512-3.243Z" transform="translate(14.241 0.538)" stroke="#80418f" stroke-width="1"/>
    </g>
  </g>
</svg>
