<svg id="Handwriting" xmlns="http://www.w3.org/2000/svg" width="102.097" height="93.994" viewBox="0 0 102.097 93.994">
  <g id="Group_764" data-name="Group 764" transform="translate(0 0)">
    <g id="Group_763" data-name="Group 763">
      <path id="Path_1021" data-name="Path 1021" d="M76.118,69.613h.608a6.283,6.283,0,0,0,4.862-2.026,7.174,7.174,0,0,0,2.026-5.267,7.253,7.253,0,0,0-2.228-5.064l-1.418-1.418A31.738,31.738,0,0,0,81.587,45.3V41.253a20.1,20.1,0,0,0-13.37-19.042A20.432,20.432,0,0,0,51.2,12.893H37.021L34.59,10.664c-1.215-1.215-3.646-2.431-7.5-3.646C24.462,6.208,22.233,5.8,22.031,5.6L19.6,7.828c.2,1.621,1.823,9.723,4.862,12.56l4.659,4.659V45.3A26.035,26.035,0,0,0,43.3,68.6a3.921,3.921,0,0,1,2.026,3.444v1.418h-8.1V93.719H81.79V73.462H75.713A31.215,31.215,0,0,1,76.118,69.613ZM35.2,17.147H51.4a16.58,16.58,0,0,1,13.978,7.9,16.422,16.422,0,0,1,2.228,8.305h4.051a21.633,21.633,0,0,0-.608-5.064,16.038,16.038,0,0,1,6.685,13.167v4.051A30.129,30.129,0,0,1,76.726,52.8L59.507,35.581V33.352a8.127,8.127,0,0,0-8.1-8.1H41.073a8.064,8.064,0,0,0-4.254-1.823A5.83,5.83,0,0,1,35,19.172V17.147Zm36.463,56.72H49.378V72.449a7.95,7.95,0,0,0-4.254-7.09A21.937,21.937,0,0,1,33.172,45.507V27.275h2.633a7.354,7.354,0,0,1,3.444,1.418,5.866,5.866,0,0,1,2.026,4.659v7.09a9.078,9.078,0,0,0,9.116,9.116,13.679,13.679,0,0,0,2.836-.405L71.459,67.587a2.8,2.8,0,0,0,.81.608A27,27,0,0,0,71.661,73.867Z" transform="translate(18.484 0.275)" fill="#642273"/>
      <g id="Handwriting-2" data-name="Handwriting">
        <path id="Path_1022" data-name="Path 1022" d="M2.826,38.15H.8V34.1H2.826A3.115,3.115,0,0,0,5.864,31.06V21.944a7.177,7.177,0,0,1,7.09-7.09,7.177,7.177,0,0,1,7.09,7.09v8.1a3.039,3.039,0,0,0,6.077,0V9.79a7.177,7.177,0,0,1,7.09-7.09,7.993,7.993,0,0,1,5.064,2.026l1.418,1.418L36.858,8.98,35.44,7.562a3.046,3.046,0,0,0-2.228-.81A3.115,3.115,0,0,0,30.173,9.79V30.047a7.09,7.09,0,0,1-14.18,0v-8.1a3.115,3.115,0,0,0-3.039-3.039,3.115,3.115,0,0,0-3.039,3.039V31.06A7.177,7.177,0,0,1,2.826,38.15Z" transform="translate(-0.8 -2.7)" fill="#642273"/>
      </g>
    </g>
  </g>
</svg>
