<svg xmlns="http://www.w3.org/2000/svg" width="56.283" height="40.747" viewBox="0 0 56.283 40.747">
  <g id="Improved_Reading" data-name="Improved Reading" transform="translate(0)">
    <path id="Path_509" data-name="Path 509" d="M-1161.506,288.421h-12.9a2.792,2.792,0,0,0-2.675-2.02,2.762,2.762,0,0,0-1.563.476,3.588,3.588,0,0,0-3.174-3.36,3.471,3.471,0,0,0-2.7.908,3.552,3.552,0,0,0-.531.618,3.521,3.521,0,0,0-4.9-.9,3.522,3.522,0,0,0-.9.9,3.278,3.278,0,0,0-.525-.618,3.5,3.5,0,0,0-2.705-.908,3.607,3.607,0,0,0-3.181,3.626v1.279h-12.768a.54.54,0,0,0-.2.037l-5.831,1.946a.618.618,0,0,0-.394.78.618.618,0,0,0,.394.394l5.831,1.94a.7.7,0,0,0,.2,0h7.412a4.845,4.845,0,0,0-.438,2v3.088a12.9,12.9,0,0,0,7.295,11.581,1.644,1.644,0,0,1,.964,1.464v.086a1.3,1.3,0,0,0-.618,1.106v5.868a1.278,1.278,0,0,0,.618,1.1V322.9a.618.618,0,0,0,.618.618.618.618,0,0,0,.618-.618v-2.891H-1188a4.7,4.7,0,0,0,4.268,0h5.461v2.934a.618.618,0,0,0,.617.618.618.618,0,0,0,.618-.618v-3.088a1.285,1.285,0,0,0,.71-1.13v-5.837a1.279,1.279,0,0,0-.729-1.155v-.488a1.644,1.644,0,0,1,.3-.97,12.732,12.732,0,0,0,2.471-7.536v-9.191h12.786a.618.618,0,0,0,.618-.618v-3.891A.618.618,0,0,0-1161.506,288.421Zm-52.4,2.569,3.978-1.334h12.693v2.656h-12.693Zm19.766,27.8a.056.056,0,0,1-.056-.049v-5.849a.056.056,0,0,1,.056-.055h4.583a4.737,4.737,0,0,0,0,5.973Zm4.768-3a3.515,3.515,0,0,1,3.509-3.521,3.515,3.515,0,0,1,3.521,3.509,3.515,3.515,0,0,1-3.508,3.521h-.012a3.515,3.515,0,0,1-3.509-3.521h0Zm11.81-2.99a.05.05,0,0,1,.019.067.051.051,0,0,1-.019.019v5.868a.049.049,0,0,1-.05.049h-4.577a4.732,4.732,0,0,0,0-5.973Zm-.148-3.286a2.861,2.861,0,0,0-.531,1.7v.352h-5.429a4.744,4.744,0,0,0-4.386,0h-5.51a2.86,2.86,0,0,0-1.662-2.471,11.673,11.673,0,0,1-6.59-10.488v-3.088a3.487,3.487,0,0,1,.618-2h3.947v4.324a.618.618,0,0,0,.618.618.618.618,0,0,0,.618-.618V292.9h0v-3.86a.774.774,0,0,0,0-.124v-1.773a2.366,2.366,0,0,1,2.063-2.4,2.279,2.279,0,0,1,2.463,2.08c.006.064.008.129.008.193a.618.618,0,0,0,.618.618.618.618,0,0,0,.617-.618,2.286,2.286,0,0,1,2.4-2.164,2.285,2.285,0,0,1,2.163,2.164.618.618,0,0,0,.618.618.618.618,0,0,0,.618-.618,2.28,2.28,0,0,1,.747-1.686,2.218,2.218,0,0,1,1.754-.581,2.359,2.359,0,0,1,2.063,2.39v2.051a.618.618,0,0,0,.618.618.618.618,0,0,0,.618-.618v-.111a1.551,1.551,0,0,1,1.544-1.445,1.575,1.575,0,0,1,1.556,1.489v13.589a11.5,11.5,0,0,1-2.187,6.8Zm15.59-17.2h-12.168v-2.656h12.168Z" transform="translate(1216.828 -283.156)" fill="#fff"/>
    <path id="Path_510" data-name="Path 510" d="M-1181.166,320.4a.962.962,0,0,1-.961-.961v-2.591h-5.036a5.068,5.068,0,0,1-2.215.512,5.068,5.068,0,0,1-2.215-.512h-5.135v2.548a.962.962,0,0,1-.961.961.962.962,0,0,1-.961-.961v-2.91a1.63,1.63,0,0,1-.617-1.28v-5.867a1.652,1.652,0,0,1,.613-1.279,1.306,1.306,0,0,0-.757-1.064,13.23,13.23,0,0,1-5.459-4.873,13.224,13.224,0,0,1-2.037-7.02v-3.089a5.148,5.148,0,0,1,.276-1.658h-6.885a1.047,1.047,0,0,1-.268,0l-.03,0-5.86-1.949a.963.963,0,0,1-.612-.612.955.955,0,0,1,.055-.733.955.955,0,0,1,.557-.479l5.822-1.943a.878.878,0,0,1,.312-.057h12.426v-.935a3.942,3.942,0,0,1,3.484-3.967c.129-.012.253-.018.375-.018a3.835,3.835,0,0,1,2.6,1.015,3.585,3.585,0,0,1,.3.307,3.856,3.856,0,0,1,.7-.623,3.842,3.842,0,0,1,2.188-.682,3.868,3.868,0,0,1,2.9,1.308,3.834,3.834,0,0,1,.3-.31,3.8,3.8,0,0,1,2.592-1.016c.125,0,.25.006.374.018a3.925,3.925,0,0,1,3.418,3.155,3.1,3.1,0,0,1,1.272-.272h.015a3.153,3.153,0,0,1,2.92,2.02h12.656a.962.962,0,0,1,.961.961v3.891a.962.962,0,0,1-.961.961h-12.443v8.848a12.988,12.988,0,0,1-2.537,7.739,1.287,1.287,0,0,0-.23.761v.295a1.631,1.631,0,0,1,.729,1.354v5.837a1.624,1.624,0,0,1-.71,1.326v2.893A.962.962,0,0,1-1181.166,320.4Zm-6.16-4.238h5.886v3.277a.275.275,0,0,0,.274.274.275.275,0,0,0,.275-.274v-3.3l.19-.095a.938.938,0,0,0,.521-.828v-5.832a.94.94,0,0,0-.533-.845l-.2-.093v-.7a1.972,1.972,0,0,1,.358-1.166,12.31,12.31,0,0,0,2.409-7.339V289.7h13.129a.275.275,0,0,0,.275-.275v-3.891a.275.275,0,0,0-.275-.275h-13.161l-.072-.248a2.461,2.461,0,0,0-2.346-1.772h-.012a2.409,2.409,0,0,0-1.357.417l-.5.339-.035-.6a3.239,3.239,0,0,0-2.871-3.039c-.1-.009-.2-.014-.3-.014a3.118,3.118,0,0,0-2.125.833,3.213,3.213,0,0,0-.48.558l-.282.416-.285-.414a3.181,3.181,0,0,0-2.62-1.376,3.16,3.16,0,0,0-1.8.56,3.169,3.169,0,0,0-.816.816l-.29.421-.28-.427a2.928,2.928,0,0,0-.47-.553,3.152,3.152,0,0,0-2.138-.834c-.1,0-.2,0-.3.015a3.256,3.256,0,0,0-2.871,3.28v1.626h-13.111a.2.2,0,0,0-.073.013l-.016.006-5.831,1.946a.274.274,0,0,0-.161.138.273.273,0,0,0-.016.209.275.275,0,0,0,.175.175l5.8,1.929a.367.367,0,0,0,.075,0l.049,0h7.946l-.222.486a4.467,4.467,0,0,0-.407,1.859V295.1a12.539,12.539,0,0,0,1.931,6.655,12.54,12.54,0,0,0,5.169,4.617,1.993,1.993,0,0,1,1.158,1.766v.285l-.163.1a.96.96,0,0,0-.454.813v5.868a.94.94,0,0,0,.452.806l.166.1v3.282a.275.275,0,0,0,.274.275.275.275,0,0,0,.274-.275V316.16h5.985l.074.037a4.378,4.378,0,0,0,1.978.475,4.381,4.381,0,0,0,1.979-.475Zm-2.036-.024h-.013a3.863,3.863,0,0,1-3.852-3.857h0a3.864,3.864,0,0,1,3.851-3.858,3.865,3.865,0,0,1,3.865,3.851,3.834,3.834,0,0,1-1.125,2.73A3.833,3.833,0,0,1-1189.362,316.136Zm-3.178-3.852a3.176,3.176,0,0,0,3.166,3.165h.011a3.15,3.15,0,0,0,2.24-.933,3.151,3.151,0,0,0,.925-2.244,3.176,3.176,0,0,0-3.171-3.166,3.178,3.178,0,0,0-3.172,3.165Zm.195,3.36-5.308-.021a.4.4,0,0,1-.4-.355l0-.038v-5.849a.4.4,0,0,1,.4-.4h5.3l-.454.56a4.414,4.414,0,0,0,0,5.54Zm-5.019-.707,3.633.015a5.115,5.115,0,0,1,0-5.284h-3.635Zm16.242.7h-5.3l.456-.56a4.406,4.406,0,0,0,0-5.54l-.452-.555,5.431-.036.078.043a.391.391,0,0,1,.188.235.391.391,0,0,1-.01.248v5.772A.393.393,0,0,1-1181.123,315.642Zm-3.915-.686h3.622V309.64l-3.625.024A5.106,5.106,0,0,1-1185.038,314.956Zm3.628-6.553h-5.857l-.075-.039a4.417,4.417,0,0,0-2.034-.5,4.417,4.417,0,0,0-2.034.5l-.075.039h-5.922l-.015-.328a2.507,2.507,0,0,0-1.462-2.174,12.009,12.009,0,0,1-4.948-4.427,12.005,12.005,0,0,1-1.842-6.372v-3.089a3.812,3.812,0,0,1,.678-2.2l.1-.148h4.47v4.667a.275.275,0,0,0,.274.275.275.275,0,0,0,.275-.275V285.5a.365.365,0,0,0,0-.065v-1.8a2.7,2.7,0,0,1,2.362-2.737l.015,0c.074-.006.149-.009.223-.009a2.637,2.637,0,0,1,2.61,2.4c.006.074.009.149.009.223a.275.275,0,0,0,.275.274.275.275,0,0,0,.275-.275V283.5a2.627,2.627,0,0,1,2.761-2.488,2.622,2.622,0,0,1,2.489,2.488v.018a.275.275,0,0,0,.275.275.275.275,0,0,0,.275-.275,2.628,2.628,0,0,1,.86-1.94,2.549,2.549,0,0,1,1.741-.683,2.571,2.571,0,0,1,.281.015,2.7,2.7,0,0,1,2.369,2.739v2.044a.275.275,0,0,0,.275.275.275.275,0,0,0,.274-.275v-.134a1.9,1.9,0,0,1,1.886-1.765,1.923,1.923,0,0,1,1.9,1.813v13.608a11.749,11.749,0,0,1-1.88,6.457h.041l-.386.542a2.5,2.5,0,0,0-.468,1.5Zm-5.69-.686h5v-.009a3.17,3.17,0,0,1,.282-1.356h-.1l.395-.544a11.079,11.079,0,0,0,2.121-6.6V285.629a1.234,1.234,0,0,0-1.217-1.155,1.21,1.21,0,0,0-1.2,1.115v.1a.962.962,0,0,1-.961.961.962.962,0,0,1-.961-.961v-2.051a2.014,2.014,0,0,0-1.763-2.05,1.858,1.858,0,0,0-.2-.011,1.868,1.868,0,0,0-1.277.5,1.942,1.942,0,0,0-.638,1.435.962.962,0,0,1-.961.961.962.962,0,0,1-.961-.951,1.938,1.938,0,0,0-1.838-1.831,1.941,1.941,0,0,0-2.04,1.831.962.962,0,0,1-.961.951.962.962,0,0,1-.961-.961c0-.055,0-.11-.007-.165a1.946,1.946,0,0,0-1.927-1.773c-.052,0-.105,0-.158.006a2.019,2.019,0,0,0-1.756,2.048V285.4a1.138,1.138,0,0,1,0,.15v8.789a.962.962,0,0,1-.961.961.962.962,0,0,1-.961-.961v-3.98h-3.418a3.126,3.126,0,0,0-.46,1.656v3.09a11.317,11.317,0,0,0,1.737,6.008,11.319,11.319,0,0,0,4.66,4.172,3.186,3.186,0,0,1,1.824,2.436h5.115a5.11,5.11,0,0,1,2.276-.537A5.109,5.109,0,0,1-1187.1,307.716Zm21.811-18.567h-12.854v-3.342h12.854Zm-12.168-.686h11.482v-1.97h-11.482Zm-22.947.686H-1213.5l-5.006-1.664,5.005-1.679h13.092Zm-12.981-.686h12.295v-1.97h-12.294l-2.95.99Z" transform="translate(1220.336 -279.651)" fill="#fff"/>
  </g>
</svg>
