<svg xmlns="http://www.w3.org/2000/svg" width="52.882" height="31.929" viewBox="0 0 52.882 31.929">
  <g id="Int_Vetted_Teachers" data-name="Int Vetted Teachers" transform="translate(0)">
    <g id="Group_528" data-name="Group 528">
      <path id="Path_483" data-name="Path 483" d="M-966.887,945.608l-25.63-7.754h-.355l-25.452,8.405a.588.588,0,0,0-.414.592.569.569,0,0,0,.414.533l6.274,1.894a5.444,5.444,0,0,0-.888,2.249,76.5,76.5,0,0,0-.769,9.885,2.1,2.1,0,0,0-1.48,1.953,2.1,2.1,0,0,0,.71,1.539l-.71,3.492a.46.46,0,0,0,.119.474.73.73,0,0,0,.473.237h2.96a.538.538,0,0,0,.473-.237.492.492,0,0,0,.118-.474l-.71-3.492a2.1,2.1,0,0,0,.71-1.539,1.974,1.974,0,0,0-1.48-1.953,70.094,70.094,0,0,1,.71-9.708,4.183,4.183,0,0,1,.947-2.072l4.38,1.3v.118l.177,13.5v.177c0,.059,0,.059.059.119a.058.058,0,0,0,.059.059c0,.059.059.059.059.119l.059.059a23.072,23.072,0,0,0,13.377,4.084h.3a23.394,23.394,0,0,0,13.614-4.439h0l.118-.118.059-.059c0-.059.059-.059.059-.119v-.177l-.059-2.782a.377.377,0,0,0,0-.355v-.829a.593.593,0,0,0-.592-.592.593.593,0,0,0-.592.592V961a22.443,22.443,0,0,1-12.608,3.966,21.942,21.942,0,0,1-12.785-3.729l-.118-9.944,12.608,3.788h.177a.218.218,0,0,0,.178-.059h0l12.489-4.143v1.6a.637.637,0,0,0,.592.592h0a.593.593,0,0,0,.592-.592v-1.953l11.779-3.907a.588.588,0,0,0,.415-.592C-966.472,945.726-966.591,945.667-966.887,945.608Zm-45.932,19.888.474,2.486h-1.48l.474-2.486Zm.651-2.072a.91.91,0,0,1-.888.888.91.91,0,0,1-.888-.888.91.91,0,0,1,.888-.888A.871.871,0,0,1-1012.168,963.424Zm19.533,2.782h.3a23.362,23.362,0,0,0,12.607-3.729v1.48a22.086,22.086,0,0,1-12.667,4.025,22.474,22.474,0,0,1-12.785-3.67v-1.539A24.637,24.637,0,0,0-992.635,966.206Zm.177-12.252-17.343-5.209a10.66,10.66,0,0,1,4.143-1.657.694.694,0,0,0,.533-.651.694.694,0,0,0-.651-.533,10.1,10.1,0,0,0-5.386,2.427l-4.972-1.48,23.5-7.754,23.676,7.162Z" transform="translate(1019.046 -937.546)" fill="#fff"/>
      <path id="Path_484" data-name="Path 484" d="M-996.588,965.283h-.3a23.446,23.446,0,0,1-13.556-4.142l-.021-.015-.168-.167v-.033a.364.364,0,0,1-.084-.115.38.38,0,0,1-.094-.276v-.177l-.176-13.384-3.958-1.177a3.773,3.773,0,0,0-.757,1.76v.007a69.925,69.925,0,0,0-.705,9.432,2.3,2.3,0,0,1,1.479,2.177,2.4,2.4,0,0,1-.682,1.646l.673,3.307a.8.8,0,0,1-.161.722.847.847,0,0,1-.73.374h-2.96a1.049,1.049,0,0,1-.692-.327.769.769,0,0,1-.2-.769l.673-3.308a2.4,2.4,0,0,1-.682-1.646A2.424,2.424,0,0,1-1018.2,957c.006-.163.011-.353.018-.566a70.012,70.012,0,0,1,.747-9.144,5.468,5.468,0,0,1,.722-2.022l-5.887-1.777a.878.878,0,0,1-.64-.83.9.9,0,0,1,.635-.888l25.49-8.418h.45l.044.013,25.616,7.75c.316.065.647.183.647.714a.9.9,0,0,1-.635.888l-11.558,3.833v1.731a.9.9,0,0,1-.9.9.948.948,0,0,1-.9-.9v-1.171l-12.03,3.991a.533.533,0,0,1-.329.093h-.223l-12.249-3.68.112,9.365a21.629,21.629,0,0,0,12.174,3.585l.3,0a22.106,22.106,0,0,0,12.3-3.817V956.1a.9.9,0,0,1,.9-.9.9.9,0,0,1,.9.9v.765a.669.669,0,0,1,0,.479l.058,2.781v.118a.37.37,0,0,1-.059.2v.043l-.3.3a23.642,23.642,0,0,1-13.795,4.5Zm-13.466-4.622a22.835,22.835,0,0,0,13.168,4.006h.294a23.025,23.025,0,0,0,13.414-4.365l.109-.109a.407.407,0,0,1,.022-.038v-.093l-.061-2.852.034-.068a.073.073,0,0,0,0-.08l-.033-.065v-.9a.285.285,0,0,0-.284-.283.285.285,0,0,0-.284.283v.869l-.13.092a22.692,22.692,0,0,1-12.783,4.023l-.309,0a22.2,22.2,0,0,1-12.657-3.787l-.13-.091-.125-10.522,12.966,3.9h.123l.021-.021.069-.023,12.895-4.278v2.025a.337.337,0,0,0,.284.284.285.285,0,0,0,.284-.284v-2.176l12.012-3.983a.286.286,0,0,0,.181-.293.437.437,0,0,0,0-.07.986.986,0,0,0-.162-.042l-.029-.007-25.586-7.741h-.26l-25.416,8.393-.011,0a.286.286,0,0,0-.181.293.26.26,0,0,0,.181.234l.014,0,6.663,2.012-.218.343a5.146,5.146,0,0,0-.842,2.125l0,.012a69.437,69.437,0,0,0-.739,9.063c-.01.313-.018.577-.026.781l-.009.223-.214.061a1.78,1.78,0,0,0-1.256,1.657,1.79,1.79,0,0,0,.6,1.3l.138.118-.756,3.706a.154.154,0,0,0,.044.158.454.454,0,0,0,.255.146h2.96a.227.227,0,0,0,.217-.1c.1-.151.095-.168.082-.2l-.01-.036-.746-3.67.138-.118a1.79,1.79,0,0,0,.6-1.3,1.664,1.664,0,0,0-1.251-1.655l-.229-.061v-.237a71.693,71.693,0,0,1,.714-9.755,4.47,4.47,0,0,1,1.011-2.217l.13-.162,4.8,1.427v.348l.178,13.491v.054l.118,0v.219A.372.372,0,0,1-1010.054,960.66Zm13.159,3.44a22.867,22.867,0,0,1-12.652-3.724l-.136-.092v-2.246l.466.278a24.175,24.175,0,0,0,12.391,3.389h.3a23.165,23.165,0,0,0,12.437-3.677l.479-.32v2.213l-.127.092a22.407,22.407,0,0,1-12.845,4.084Zm-12.172-4.145a22.281,22.281,0,0,0,12.172,3.529l.3,0a21.825,21.825,0,0,0,12.363-3.874v-.756a23.953,23.953,0,0,1-12.3,3.471h-.3a24.815,24.815,0,0,1-12.24-3.205Zm-7.1,4.143h-2.225l.591-3.1h1.043Zm-1.48-.617h.735l-.356-1.869h-.023Zm.4-3.053a1.212,1.212,0,0,1-1.2-1.2,1.212,1.212,0,0,1,1.2-1.2,1.183,1.183,0,0,1,1.2,1.2A1.212,1.212,0,0,1-1017.247,960.429Zm0-1.776a.6.6,0,0,0-.58.58.6.6,0,0,0,.58.58.6.6,0,0,0,.58-.58A.561.561,0,0,0-1017.247,958.653Zm20.6-8.568-18.028-5.415.5-.366a10.852,10.852,0,0,1,4.271-1.712.392.392,0,0,0,.277-.317.391.391,0,0,0-.337-.255,9.891,9.891,0,0,0-5.175,2.339l-.13.126-6.087-1.812,24.525-8.092.093.028,24.614,7.445Zm-16.628-5.638,16.62,4.992,22.477-7.36-22.646-6.85-22.473,7.415,3.86,1.149a10.4,10.4,0,0,1,5.469-2.389,1,1,0,0,1,.953.781l.006.03v.031a1,1,0,0,1-.78.953l-.015,0A10.926,10.926,0,0,0-1013.273,944.447Z" transform="translate(1023.238 -933.354)" fill="#fff"/>
    </g>
    <g id="Group_529" data-name="Group 529" transform="translate(39.007 17.106)">
      <path id="Path_485" data-name="Path 485" d="M-448.77,1187.55h0a.593.593,0,0,0-.592.592v1.776a.637.637,0,0,0,.592.592h0a.593.593,0,0,0,.592-.592v-1.776A.593.593,0,0,0-448.77,1187.55Z" transform="translate(449.67 -1187.242)" fill="#fff"/>
      <path id="Path_486" data-name="Path 486" d="M-452.962,1186.626a.949.949,0,0,1-.9-.9v-1.776a.9.9,0,0,1,.9-.9.9.9,0,0,1,.9.9v1.776A.9.9,0,0,1-452.962,1186.626Zm0-2.96a.285.285,0,0,0-.284.284v1.776a.337.337,0,0,0,.284.284.285.285,0,0,0,.284-.284v-1.776A.285.285,0,0,0-452.962,1183.667Z" transform="translate(453.862 -1183.05)" fill="#fff"/>
    </g>
  </g>
</svg>
