<svg id="Int_lesson_plans" data-name="Int lesson plans" xmlns="http://www.w3.org/2000/svg" width="40.26" height="50.863" viewBox="0 0 40.26 50.863">
  <g id="Group_519" data-name="Group 519" transform="translate(4.09 2.89)">
    <path id="Path_405" data-name="Path 405" d="M-706.971,63.6c-2.583-7.091-10.711-14.42-23.057-10.76h-.02A18.015,18.015,0,0,0-740.788,75.9c2.583,7.081,10.72,14.44,23.057,10.76h.02A18.036,18.036,0,0,0-706.971,63.6Zm-1.855-.2-6.133,2.234a30.279,30.279,0,0,0-3.979-7.26l4.787-1.745A16.309,16.309,0,0,1-708.826,63.4Zm-17.362-2.383,5.6-2.034a28.575,28.575,0,0,1,4.1,7.21l-6.9,2.513Zm4.617,17.472-5.6,2.034a28.565,28.565,0,0,1-4.1-7.21l6.9-2.513Zm5.714-22.977-4.178,1.526a15.326,15.326,0,0,0-4.5-3.62C-719.986,53.285-718.26,54.153-715.857,55.509Zm-5.884,2.144-5.016,1.825-1.925-5.3C-728.472,54.153-725.77,53.594-721.741,57.653Zm-8.477-2.912,1.925,5.3-5.036,1.835C-733.3,61.443-733,56.416-730.218,54.741Zm2.483,6.831,2.8,7.689-6.9,2.513a28.377,28.377,0,0,1-1.526-8.148Zm-6.123-4.787a16.094,16.094,0,0,0-1.117,5.684l-4.2,1.526A16.365,16.365,0,0,1-733.858,56.785Zm-5.924,9.175,4.827-1.755a29.968,29.968,0,0,0,1.6,8.128l-6.133,2.224A16.086,16.086,0,0,1-739.781,65.96Zm.838,10.142,6.133-2.234a30.281,30.281,0,0,0,3.979,7.26l-4.787,1.745A16.37,16.37,0,0,1-738.944,76.1Zm7.031,7.878,4.179-1.526a15.2,15.2,0,0,0,4.5,3.62A16.874,16.874,0,0,1-731.913,83.981Zm5.884-2.134,5.016-1.825,1.925,5.3C-719.288,85.337-722.7,85.5-726.029,81.846Zm8.477,2.912-1.925-5.3,5.036-1.835C-714.471,78.057-714.82,83.2-717.552,84.759Zm-2.483-6.831-2.8-7.689,6.9-2.513a28.372,28.372,0,0,1,1.526,8.148Zm6.123,4.787A16.472,16.472,0,0,0-712.8,77.03l4.2-1.526A16.365,16.365,0,0,1-713.912,82.714Zm5.934-9.175-4.827,1.755a29.978,29.978,0,0,0-1.6-8.128l6.133-2.234A16.327,16.327,0,0,1-707.979,73.539Z" transform="translate(741.966 -51.774)" fill="#fff"/>
    <path id="Path_406" data-name="Path 406" d="M-725.51,86.321A17.423,17.423,0,0,1-736.4,82.6a18.5,18.5,0,0,1-5.872-8.076,18.106,18.106,0,0,1,10.793-23.18l.015-.005h.023a22.555,22.555,0,0,1,6.384-.974,17.444,17.444,0,0,1,10.9,3.716,18.459,18.459,0,0,1,5.871,8.077,18.118,18.118,0,0,1-10.793,23.18l-.015.005h-.023A22.442,22.442,0,0,1-725.51,86.321Zm-5.925-34.808a17.929,17.929,0,0,0-10.673,22.948,18.316,18.316,0,0,0,5.815,8,17.247,17.247,0,0,0,10.783,3.685,22.275,22.275,0,0,0,6.35-.977l.012,0h.017a17.941,17.941,0,0,0,10.673-22.948,18.28,18.28,0,0,0-5.814-8,17.269,17.269,0,0,0-10.788-3.678,22.386,22.386,0,0,0-6.346.97l-.012,0Zm6.177,33.259a17.641,17.641,0,0,1-8.1-2.126l-.174-.093,4.421-1.614.04.045a15.036,15.036,0,0,0,4.471,3.6l.278.138-.309.029C-724.64,84.752-724.858,84.773-725.258,84.773Zm-7.84-2.189a17.436,17.436,0,0,0,7.84,2.011c.109,0,.2,0,.286,0a15.51,15.51,0,0,1-4.192-3.444ZM-720.681,84c-.849,0-3.848-.253-6.816-3.506l-.089-.1,5.224-1.9,1.994,5.486-.113.011C-720.514,84-720.585,84-720.681,84Zm-6.6-3.528c2.89,3.107,5.774,3.35,6.6,3.35h.066l-1.853-5.1Zm8.274,3L-720.993,78l5.248-1.912-.009.136-.089-.006.088.011c-.066.939-.526,5.7-3.156,7.2Zm-1.764-5.371,1.858,5.112c2.37-1.448,2.872-5.716,2.966-6.87Zm5.235,3.477.134-.313a16.452,16.452,0,0,0,1.11-5.652l0-.06,4.436-1.612-.068.18a16.449,16.449,0,0,1-5.344,7.249Zm1.42-5.9a17.124,17.124,0,0,1-1,5.345,16.273,16.273,0,0,0,4.956-6.784Zm-20.924,5.881-.038-.028a16.475,16.475,0,0,1-5.354-6.808l-.036-.086,6.3-2.3.032.081a30.383,30.383,0,0,0,3.967,7.239l.073.1Zm-5.193-6.82a16.3,16.3,0,0,0,5.222,6.62l4.629-1.688a30.619,30.619,0,0,1-3.887-7.1Zm11.62,4.472-.04-.05a28.712,28.712,0,0,1-4.112-7.233l-.034-.085,7.07-2.575,2.863,7.856Zm-3.953-7.263A28.54,28.54,0,0,0-728.549,79l5.461-1.982-2.742-7.522Zm11.07,4.679-2.863-7.856,7.07-2.575.029.086a28.6,28.6,0,0,1,1.53,8.173l0,.064Zm-2.636-7.75,2.742,7.522,5.481-2a28.418,28.418,0,0,0-1.491-7.972Zm9.836,5.128-.005-.12a30.1,30.1,0,0,0-1.591-8.1l-.028-.082,6.3-2.3.027.089a16.46,16.46,0,0,1,.291,8.653l-.011.046Zm-1.4-8.2a30.323,30.323,0,0,1,1.567,7.95l4.669-1.7a16.283,16.283,0,0,0-.271-8.424Zm-25.26,7.451-.028-.089a16.212,16.212,0,0,1-.291-8.644l.011-.046,4.985-1.813.006.12a30.1,30.1,0,0,0,1.591,8.1l.028.082Zm-.157-8.644a16.032,16.032,0,0,0,.271,8.414l5.964-2.163a30.328,30.328,0,0,1-1.567-7.949Zm7.818,5.861-.029-.086a28.591,28.591,0,0,1-1.53-8.173l0-.064,5.768-2.107,2.863,7.856Zm-1.38-8.2a28.422,28.422,0,0,0,1.491,7.972l6.732-2.452-2.742-7.522Zm9.829,5.128-2.863-7.856,5.748-2.086.04.05a28.709,28.709,0,0,1,4.112,7.233l.034.085Zm-2.636-7.749,2.742,7.522L-718,64.726a28.536,28.536,0,0,0-4.012-7.053Zm11.064,4.677-.031-.081a30.384,30.384,0,0,0-3.967-7.239l-.073-.1,4.945-1.8.038.028a16.433,16.433,0,0,1,5.354,6.808l.036.086ZM-720.2,57a30.61,30.61,0,0,1,3.887,7.1l5.964-2.172a16.256,16.256,0,0,0-5.222-6.62Zm-20.528,5.731.068-.18a16.449,16.449,0,0,1,5.344-7.249l.244-.188-.106.289a16.035,16.035,0,0,0-1.108,5.521c0,.049,0,.094,0,.135l0,.06Zm5.278-7.1a16.273,16.273,0,0,0-4.975,6.8L-736.464,61q0-.035,0-.074A16,16,0,0,1-735.449,55.635Zm.619,4.955.011-.16c.088-1.291.576-5.624,3.153-7.176l.092-.056,1.992,5.48Zm3.164-7.128a6.492,6.492,0,0,0-2.436,3.851,15.511,15.511,0,0,0-.532,3.017l4.824-1.758Zm3.453,4.718-1.992-5.481.128-.019a3.176,3.176,0,0,1,.521-.04,6.067,6.067,0,0,1,2.454.593,13.776,13.776,0,0,1,4.021,2.946l.1.1Zm-1.751-5.337,1.857,5.11,4.8-1.747c-1.32-1.311-3.8-3.388-6.251-3.388A3.1,3.1,0,0,0-729.964,52.843Zm8.5,2.885-.04-.045a15.338,15.338,0,0,0-4.471-3.6l-.316-.158.353-.01c.3-.009.591-.013.868-.013a13.311,13.311,0,0,1,7.854,2.118l.167.095Zm-4.124-3.643a15.846,15.846,0,0,1,4.177,3.435l3.941-1.439A13.3,13.3,0,0,0-725.589,52.084Z" transform="translate(743.369 -50.362)" fill="#fff"/>
  </g>
  <g id="Group_520" data-name="Group 520" transform="translate(0 0)">
    <path id="Path_407" data-name="Path 407" d="M-788.071,46.167a21.786,21.786,0,0,0,6.612-1.3l-.558-1.536a20.472,20.472,0,0,1-26.208-12.216A20.477,20.477,0,0,1-796,4.911l-.558-1.536a22.111,22.111,0,0,0-13.2,28.3,22.1,22.1,0,0,0,20.055,14.5v2.942h-7.36v4.916h16.355V49.129h-7.36V46.167Zm5.734,4.6V52.4h-13.094V50.765Z" transform="translate(811.18 -3.261)" fill="#fff"/>
    <path id="Path_408" data-name="Path 408" d="M-782.024,52.315h-16.532V47.221h7.36V44.454a22.191,22.191,0,0,1-12.081-4.1A21.978,21.978,0,0,1-811.246,29.9,22.205,22.205,0,0,1-797.989,1.482l.083-.03.619,1.7-.083.03a20.391,20.391,0,0,0-12.173,26.094,20.209,20.209,0,0,0,7.585,9.793,20.344,20.344,0,0,0,11.565,3.6h0a20.227,20.227,0,0,0,6.943-1.23l.083-.03.619,1.7-.083.03a21.907,21.907,0,0,1-6.554,1.3v2.788h7.36Zm-16.355-.177H-782.2V47.409h-7.36V44.273l.085,0a21.749,21.749,0,0,0,6.5-1.261l-.5-1.369a20.4,20.4,0,0,1-6.92,1.211h0a20.519,20.519,0,0,1-11.665-3.632,20.386,20.386,0,0,1-7.651-9.878,20.569,20.569,0,0,1,12.2-26.291l-.5-1.369a22.027,22.027,0,0,0-13.067,28.158,21.8,21.8,0,0,0,7.9,10.372,22.013,22.013,0,0,0,12.069,4.07l.086,0V47.4h-7.36Zm14.729-1.458h-13.271V48.867h13.271Zm-13.094-.177h12.917V49.044h-12.917Z" transform="translate(812.581 -1.452)" fill="#fff"/>
  </g>
</svg>
