<svg xmlns="http://www.w3.org/2000/svg" width="36.92" height="48.917" viewBox="0 0 36.92 48.917">
  <g id="Interactive_Learning" data-name="Interactive Learning" transform="translate(-169.773 -469.589)">
    <path id="Path_727" data-name="Path 727" d="M185.578,665.192a2.789,2.789,0,0,1-.8,2.213c-1.562,1.427-3.134.409-3.77-1.319-.808-2.154-.9-4.744-1.438-7-.221-.921-.4-1.852-.619-2.784s-.14-2.154-1.389-1.826-.695,1.616-.452,2.59c.28,1.163.576,2.316.862,3.479.388,1.556,3.624,10.232,0,10.027a2.791,2.791,0,0,1-2.294-2.289c-.539-2.014-.716-4.071-1.427-6.069-.275-.8-1.459-5.024-2.693-2.208-.409.943-.059,2.752.129,3.635.485,2.256,1.319,4.481,1.993,6.689.646,2.122,1.244,4.254,1.912,6.365a9.988,9.988,0,0,0,3.77,5.229c3.258,2.655,3.861,5.358,3.527,9.489-.086,1.029-1.7,1.034-1.616,0,.156-1.928.42-4.217-.657-5.961a11.212,11.212,0,0,0-2.87-2.693,8.842,8.842,0,0,1-3.021-3.77,62.148,62.148,0,0,1-2-6.36c-.829-2.693-1.8-5.423-2.477-8.175-.442-1.788-1.212-6.306,1.222-7.173s3.619,2.429,4.211,4.044a25.49,25.49,0,0,1,1.136,4.033c.043.2.9,4.1,1.239,3.77s-.318-2.466-.4-2.892c-.539-2.693-1.222-5.337-1.874-7.992-.366-1.492-1.039-3.274-.2-4.723a2.471,2.471,0,0,1,3.99-.242,6.96,6.96,0,0,1,1.126,3.2c.447,1.96.9,3.9,1.239,5.9.1.538.388,4.308,1.508,4.061.538-.113.42-.582.463-.916a2.7,2.7,0,0,0,0-.474,6.685,6.685,0,0,0-.172-1.362l-.425-3.29a.781.781,0,0,1,1.282.382A22.327,22.327,0,0,1,185.578,665.192Z" transform="translate(0 -173.68)" fill="#fff"/>
    <path id="Path_728" data-name="Path 728" d="M519.407,792.263c-.943-.307-1.368-1.7-1.616-3.231-.242-1.664-.242-3.495-.409-4.308a.851.851,0,0,1,1.314-.856,19.8,19.8,0,0,0,.695,4.308l.092.059v.232c.038.318.092.749.14,1.077.108.743.221,1.185.253-.291a18.085,18.085,0,0,0-.3-4.12.345.345,0,0,0-.043-.2.093.093,0,0,0,0-.038c-.059-.3-.118-.609-.183-.937l-.1-.539h1.115v.178l.565-.1c.07.42.145.835.221,1.26.092.538.183,1.039.253,1.583C521.561,787.416,522.207,793.162,519.407,792.263Z" transform="translate(-330.264 -298.182)" fill="#fff"/>
    <path id="Path_729" data-name="Path 729" d="M602.978,797.443c-1.282,2.73-1.906,5.261-4.028,7.577-2.219,2.423-7.238,4.847-6.527,8.8h0c.183,1.018-1.373,1.449-1.562.431-.657-3.667,2.154-6.328,4.755-8.514a18.446,18.446,0,0,0,3.231-3.15c1.357-1.863,1.766-3.974,2.73-5.988.539-1.158,1.282-2.262,1.917-3.382.4-.695,1.368-1.793,1.443-2.536.21-2.154-1.492-1.82-2.908-1.018a7.319,7.319,0,0,0-2.806,2.93c-.657,1.158-2.483,5.45-4.346,2.6-.894-1.373-.393-4.066-.393-5.6a54.416,54.416,0,0,0-.129-6.069h1.616c.043.539.07,1.077.086,1.54.065,2.186.07,4.378.1,6.57,0,.425-.269,2.66.7,2.31.339-.119,1.039-2.235,1.206-2.515a8.343,8.343,0,0,1,6.031-4.222C610.226,786.781,603.667,795.909,602.978,797.443Z" transform="translate(-399.999 -298.285)" fill="#fff"/>
    <path id="Path_730" data-name="Path 730" d="M544.67,527.732a7.888,7.888,0,0,0-.883-1.642,8.026,8.026,0,0,0-.8-.953,6.673,6.673,0,0,0-.749-.662,4.664,4.664,0,0,0-1.109-.63,3.523,3.523,0,0,0-1.395-.275,3.179,3.179,0,0,0-.8.1,1.74,1.74,0,0,0-1.077.695,2.234,2.234,0,0,0-.329.856,6.171,6.171,0,0,0-.129,1.3v.582c.07,3.554.609,6.963.824,10.458a.53.53,0,0,0,.538.517h0a.533.533,0,0,0,.21,0c.4-.081.808-.156,1.217-.221a35.443,35.443,0,0,1,4.771-.485.641.641,0,0,0,.695-.582h0A21.9,21.9,0,0,0,544.67,527.732Zm-4.7,8.869-.565.1v-.178c-.382-3.016-1.713-11.46.323-11.659,2.477-.248,3.84,3.307,4.217,5.17a25.806,25.806,0,0,1,.49,6.1A38.365,38.365,0,0,0,539.969,536.6Z" transform="translate(-349.301 -51.288)" fill="#fff"/>
    <path id="Path_731" data-name="Path 731" d="M576.718,587.324a.641.641,0,1,0-.53-.735.663.663,0,0,0-.008.1A.641.641,0,0,0,576.718,587.324Z" transform="translate(-386.142 -110.654)" fill="#fff"/>
    <path id="Path_732" data-name="Path 732" d="M605.338,584.732a.641.641,0,1,0-.539-.635A.641.641,0,0,0,605.338,584.732Z" transform="translate(-413.335 -108.192)" fill="#fff"/>
    <path id="Path_733" data-name="Path 733" d="M609.9,473.277c.485-.539.63-1.314,1.19-1.847a2.294,2.294,0,0,1,.819-.539c.539-.059.285.253.178.539a5.656,5.656,0,0,1-1.75,2.725c-.689.442.124,1.427.808.991a5.714,5.714,0,0,0,1.669-2.251c.355-.705.953-1.809.539-2.58a1.648,1.648,0,0,0-2.283-.447,4.14,4.14,0,0,0-1.2,1.018c-.425.539-.6,1.185-1.023,1.664-.539.625.5,1.368,1.077.759Z" transform="translate(-417.041 0)" fill="#fff"/>
    <path id="Path_734" data-name="Path 734" d="M463.285,473.427a5.982,5.982,0,0,0-2.456-2.763,2.439,2.439,0,0,0-2.9.436c-.7.856-.156,1.831.479,2.569a6.748,6.748,0,0,0,3.048,2.3c.781.242,1.239-.948.463-1.19a4.244,4.244,0,0,1-1.772-1.077c-.258-.253-1.26-1.077-1.271-1.5-.043-.915,1.432-.425,1.826-.124a5.607,5.607,0,0,1,1.432,1.9c.393.705,1.567.162,1.158-.538Z" transform="translate(-273.479 -0.758)" fill="#fff"/>
    <path id="Path_735" data-name="Path 735" d="M574.4,621.288a9.435,9.435,0,0,0,1.266.059,10.365,10.365,0,0,0,1.228-.172c.813-.1.6-1.357-.215-1.26-.355.043-.695.151-1.077.167a7.855,7.855,0,0,1-1.077-.065.641.641,0,0,0-.129,1.271Z" transform="translate(-383.946 -142.824)" fill="#fff"/>
    <path id="Path_736" data-name="Path 736" d="M819.374,879.653a6.3,6.3,0,0,0-2.5,3.032,2.025,2.025,0,0,0-.129,1.669A3.128,3.128,0,0,0,818,885.668a.609.609,0,0,0,.614-1.045c-1.793-1.013.3-3.231,1.373-3.926C820.634,880.272,820.026,879.222,819.374,879.653Z" transform="translate(-614.597 -389.52)" fill="#fff"/>
    <path id="Path_737" data-name="Path 737" d="M289.423,713.89a2.547,2.547,0,0,0,2.154.749,3.26,3.26,0,0,0,1.96-1.5c.474-.641-.582-1.228-1.045-.608-.582.781-1.373,1.26-2.186.5C289.709,712.506,288.853,713.357,289.423,713.89Z" transform="translate(-113.506 -230.58)" fill="#fff"/>
    <path id="Path_738" data-name="Path 738" d="M435.115,652.978a2.547,2.547,0,0,0,2.154.749,3.26,3.26,0,0,0,1.96-1.5c.474-.641-.582-1.228-1.045-.609-.582.781-1.373,1.26-2.186.5C435.4,651.583,434.544,652.445,435.115,652.978Z" transform="translate(-251.933 -172.705)" fill="#fff"/>
    <path id="Path_739" data-name="Path 739" d="M177.2,803.3c.135.1.242.377.366.506a2.732,2.732,0,0,0,.614.469,2.494,2.494,0,0,0,1.5.285,2.537,2.537,0,0,0,2.106-1.939.609.609,0,0,0-1.169-.3,1.287,1.287,0,0,1-1.465,1.045c-.662-.124-.856-.722-1.341-1.077-.619-.474-1.222.576-.609,1.045Z" transform="translate(-6.816 -315.783)" fill="#fff"/>
    <path id="Path_740" data-name="Path 740" d="M428.747,605.019c0-.075-.635-2.827-.813-4.6-.032-.312-.065-.619-.092-.91-.539-5.31-.926-8.589-2.763-9.02a2.391,2.391,0,0,0-2.186.436c-1.169.985-1.077,2.983-1.077,3.231l.953,7.372.436,3.253a6.686,6.686,0,0,1,.194,1.336.91.91,0,0,0,.867.625h.118a.9.9,0,0,0,.668-.442c.1-.167-1.4-12.3-1.4-12.3,0-.452.075-1.373.42-1.664.043-.038.167-.145.539-.065.732.6,1.169,5.035,1.4,7.426a48.047,48.047,0,0,0,1.007,5.924,1.729,1.729,0,0,0,.98.819.915.915,0,0,0,.878-.307C428.838,605.768,428.784,605.321,428.747,605.019Z" transform="translate(-239.474 -114.778)" fill="#fff"/>
  </g>
</svg>
