<svg id="Login" xmlns="http://www.w3.org/2000/svg" width="31.963" height="37.971" viewBox="0 0 31.963 37.971">
  <path id="Path_221" data-name="Path 221" d="M330.915,397.292c-8.006-.007-22.7-.04-23.765,0-1.339.05-1.341,1.121-1.33,2.435-.011,1.923.012,6.22.012,6.22h2.793v-6h20.762v32.62H308.581v-5.817h-2.742c0,2.048.036,4.049-.019,6.046-.036,1.328.147,2.366,1.329,2.437.192.011,15.844,0,23.765,0,1.054,0,1.282-.06,1.278-1.15V398.442C332.192,397.4,331.7,397.252,330.915,397.292Z" transform="translate(-300.229 -397.272)" fill="#fff"/>
  <path id="Path_222" data-name="Path 222" d="M201.216,649.913c-.19.2-.292.322-.407.431-1.469,1.39-2.946,2.773-4.405,4.172a1.2,1.2,0,0,0-.235,1.616,1.385,1.385,0,0,0,1.686.519,2.205,2.205,0,0,0,.627-.425q3.49-3.281,6.965-6.576a1.26,1.26,0,0,0,0-2.128q-3.482-3.288-6.98-6.56a1.483,1.483,0,0,0-2.158-.1c-.553.586-.454,1.278.3,1.994q2.109,2,4.224,3.992c.108.1.194.228.365.432l-20.523.012a.691.691,0,0,0-.724.684v1.192a.724.724,0,0,0,.724.723S200.938,649.9,201.216,649.913Z" transform="translate(-179.95 -629.648)" fill="#fff"/>
</svg>
