<svg id="LSRW" xmlns="http://www.w3.org/2000/svg" width="88.234" height="88.233" viewBox="0 0 88.234 88.233">
  <g id="Group_765" data-name="Group 765" transform="translate(0 0)">
    <path id="Path_1023" data-name="Path 1023" d="M82.881,16.705H74.057V12.294a1.471,1.471,0,0,0-1.471-1.471H69.913L46.633,2.092a1.484,1.484,0,0,0-1.029,0L22.075,10.916a1.471,1.471,0,0,0,0,2.756l1.984.744v2.29H9.353A7.362,7.362,0,0,0,2,24.058V65.234a7.362,7.362,0,0,0,7.353,7.353h29L36.145,81.41H34.352a4.412,4.412,0,1,0,0,8.823H57.881a4.412,4.412,0,1,0,0-8.823H56.089l-2.206-8.823h29a7.362,7.362,0,0,0,7.353-7.353V24.058a7.362,7.362,0,0,0-7.353-7.353Zm-14.706-2.29,1.738-.651h1.2v2.941H68.175ZM46.117,5.041l15.419,5.782H46.117v2.941H61.536L46.117,19.547,27,12.378v-.084h-.224ZM45.6,22.5a1.484,1.484,0,0,0,1.029,0l18.6-6.976v9.109c-4.516,2.415-11.573,3.843-19.117,3.843S31.516,27.042,27,24.627V15.519ZM9.353,19.647H24.058v5.838a1.471,1.471,0,0,0,.718,1.263c4.9,2.919,12.878,4.663,21.341,4.663s16.442-1.744,21.341-4.663a1.471,1.471,0,0,0,.718-1.263V19.647h2.941v4.682a4.39,4.39,0,0,0-.362,8.142l-2.522,8.823a1.471,1.471,0,0,0,1.413,1.881h5.882A1.471,1.471,0,0,0,76.941,41.3l-2.522-8.823a4.39,4.39,0,0,0-.362-8.148V19.647h8.823a4.412,4.412,0,0,1,4.412,4.412V57.881H4.941V24.058a4.412,4.412,0,0,1,4.412-4.412ZM72.587,27a1.471,1.471,0,1,1-1.471,1.471A1.471,1.471,0,0,1,72.587,27Zm0,9.765.991,3.471H71.6ZM59.352,85.822a1.471,1.471,0,0,1-1.471,1.471H34.352a1.471,1.471,0,0,1,0-2.941H57.881A1.471,1.471,0,0,1,59.352,85.822Zm-6.3-4.412H39.177l2.206-8.823h9.467ZM82.881,69.646H9.353a4.412,4.412,0,0,1-4.412-4.412V60.822H87.292v4.412A4.412,4.412,0,0,1,82.881,69.646Z" transform="translate(-2 -2)" fill="#0a8f95"/>
    <rect id="Rectangle_148" data-name="Rectangle 148" width="4" height="3" transform="translate(75.844 61.503)" fill="#0a8f95"/>
    <path id="Path_1024" data-name="Path 1024" d="M9.471,44.588H33a1.471,1.471,0,0,0,1.471-1.471V25.471A1.471,1.471,0,0,0,33,24H9.471A1.471,1.471,0,0,0,8,25.471V43.117A1.471,1.471,0,0,0,9.471,44.588Zm1.471-17.647H31.529V41.647H10.941Z" transform="translate(0.823 8.352)" fill="#0a8f95"/>
    <rect id="Rectangle_149" data-name="Rectangle 149" width="1" height="3" transform="translate(42.844 32.503)" fill="#0a8f95"/>
    <rect id="Rectangle_150" data-name="Rectangle 150" width="11" height="3" transform="translate(46.844 32.503)" fill="#0a8f95"/>
    <rect id="Rectangle_151" data-name="Rectangle 151" width="15" height="4" transform="translate(42.844 38.503)" fill="#0a8f95"/>
    <rect id="Rectangle_152" data-name="Rectangle 152" width="15" height="2" transform="translate(42.844 44.503)" fill="#0a8f95"/>
    <rect id="Rectangle_153" data-name="Rectangle 153" width="7" height="4" transform="translate(42.844 49.503)" fill="#0a8f95"/>
  </g>
</svg>
