<svg id="Group_506" data-name="Group 506" xmlns="http://www.w3.org/2000/svg" width="41.558" height="34.336" viewBox="0 0 41.558 34.336">
  <path id="Path_223" data-name="Path 223" d="M110.282,456.193a10.066,10.066,0,0,0-2.857-2.624V440.487a.819.819,0,0,0,.023-.215,3.124,3.124,0,0,0-3.081-3.082H73.734a3.133,3.133,0,0,0-2.353.994,3.264,3.264,0,0,0-.822,2.241v23.288a3.132,3.132,0,0,0,1.583,2.75,5.92,5.92,0,0,0,2.937.392H94.165c.131.21.266.416.411.616a9.919,9.919,0,0,0,4.776,3.548A9.665,9.665,0,0,0,112,463.332a10.417,10.417,0,0,0,.117-1.475v0A9.656,9.656,0,0,0,110.282,456.193Zm-15.93.359c-.023.033-.042.065-.065.1s-.028.042-.042.065l-.042.07-.07.112c-.023.037-.047.075-.07.117s-.042.07-.061.107a.983.983,0,0,0-.051.1c-.014.028-.033.056-.047.084s-.047.089-.07.131c-.065.131-.131.266-.191.4s-.121.271-.173.411c-.037.093-.07.187-.107.276l-.1.28c-.014.047-.028.093-.047.14-.028.084-.051.168-.075.252s-.037.135-.056.205-.042.173-.061.257c-.014.056-.023.112-.037.168-.019.089-.037.177-.051.266-.047.247-.079.495-.107.747-.009.089-.019.177-.023.271q-.035.455-.028.91a1.048,1.048,0,0,0,0,.121v.009a.6.6,0,0,0,0,.093v.014a.4.4,0,0,0,0,.075c0,.028,0,.061,0,.089a.158.158,0,0,0,0,.047,9.82,9.82,0,0,0,.495,2.512h-19.7a.106.106,0,0,1-.033,0s-.014.009-.051,0c-.056,0-.07-.009-.047-.009a.44.44,0,0,1-.075-.019c-.042-.009-.079-.023-.121-.033a.087.087,0,0,0-.033-.009.028.028,0,0,1-.019,0h-.009c-.051-.023-.065-.028-.047-.023-.023-.009-.042-.023-.065-.033s-.1-.051-.159-.089l.019.019-.023-.023a0,0,0,0,1,0,0l-.009-.009c-.028-.028-.061-.051-.093-.079-.061-.056-.107-.112-.163-.173l-.042-.065c-.042-.065-.075-.14-.112-.205,0-.014-.009-.028-.014-.047a2.543,2.543,0,0,1-.07-.271v-.042a.688.688,0,0,0,0-.1V440.2a.634.634,0,0,1,0-.075c-.033.154-.009-.051,0-.056a.392.392,0,0,0,0,.056c0-.009,0-.019,0-.028a1.81,1.81,0,0,1,.056-.215.491.491,0,0,0,.023-.075s0,0,0,.009,0,0,0-.009c.009-.023.014-.042.019-.042a.046.046,0,0,1,0,.019l.1-.182a.608.608,0,0,0,.047-.07c.051-.056.1-.112.159-.163a.606.606,0,0,1,.084-.07.259.259,0,0,0-.037.023c.014-.014.033-.023.047-.037h0a.059.059,0,0,1,.033-.019h0l.093-.056c.028-.014.056-.028.079-.042,0,0,.014,0,.019-.009a1.379,1.379,0,0,0,.2-.065.548.548,0,0,1,.093-.019.132.132,0,0,1,.065-.014h.009l.047-.014-.042.014c.037,0,.079,0,.117,0h29.087c.542,0,1.079,0,1.62,0,.061,0,.117,0,.177,0-.019,0-.037,0-.056-.009-.126-.028.187.009.056.009.014,0,.023,0,.037.009.084.019.159.047.243.065a.285.285,0,0,1,.033.009.133.133,0,0,0,.028.014c.065.033.126.07.187.107a.267.267,0,0,0,.033.019c-.107-.1.126.07,0,0,.061.056.121.107.177.168a.511.511,0,0,1,.047.051h0s.019.019.033.042h0c.014.014.023.028.033.037a.18.18,0,0,1-.023-.028,1.338,1.338,0,0,1,.075.131c0,.009.033.056.061.1a.238.238,0,0,0,.009.042,1.2,1.2,0,0,1,.037.121c.019.061.023.131.037.191v-.033c0-.079,0,.019.009.065v.019a.016.016,0,0,0,0-.009.629.629,0,0,0,0,.093V452.71a9.846,9.846,0,0,0-5.995-.1s-.009,0-.014,0c-.154.051-.313.1-.462.159a9.9,9.9,0,0,0-4.417,3.3C94.576,456.226,94.459,456.389,94.352,456.553Zm15.874,5.953c0,.084-.014.173-.023.257a.652.652,0,0,1-.023.191v0a8.5,8.5,0,0,1-.266,1.172c-.061.2-.126.4-.2.588-.023.065-.042.182-.093.229,0-.009,0-.014.009-.023l-.014.028c-.023.056-.051.112-.079.168a9.435,9.435,0,0,1-.57,1.018c-.112.173-.229.336-.35.5a.064.064,0,0,1-.014.019.226.226,0,0,0,.047-.056c-.009.061-.089.126-.047.056a.149.149,0,0,0-.028.033q-.112.14-.238.28a9.043,9.043,0,0,1-.822.817c-.075.065-.154.131-.233.2l-.023.023,0,0a.716.716,0,0,1-.061.047h0l0,0c-.163.121-.331.238-.5.346a8.345,8.345,0,0,1-1.022.56l-.121.056c-.07.065-.112.065-.089.047-.07.028-.149.047-.2.065-.2.075-.392.14-.593.2a10.156,10.156,0,0,1-1.177.257c.173-.019-.042.009-.061.009a.166.166,0,0,1,.033,0c.009,0,.019,0,.028,0l-.126.014-.322.028c-.219.014-.439.023-.658.019s-.43-.009-.64-.028c-.1-.009-.205-.019-.313-.033h-.019a.36.36,0,0,1-.07-.009h-.019c-.047-.009-.089-.019-.131-.023a8.406,8.406,0,0,1-1.3-.331c-.107-.037-.215-.075-.317-.117l-.1-.042h0a.636.636,0,0,1-.084-.033,5.739,5.739,0,0,1-.537-.266,8.8,8.8,0,0,1-1.107-.7.891.891,0,0,1-.079-.061.3.3,0,0,0,.042.037c-.014-.009-.033-.033-.065-.061.009,0,.014.014.023.019-.019-.014-.033-.033-.042-.037-.07-.056-.135-.112-.205-.173-.177-.154-.346-.313-.509-.476s-.289-.3-.43-.467c-.061-.07-.117-.14-.177-.215.084.112-.023-.023-.037-.042,0,0,.009.009.019.023s.009.014.014.019,0-.009-.009-.014c-.042-.051-.079-.107-.117-.163a9.027,9.027,0,0,1-.691-1.13q-.084-.161-.154-.322s-.019-.037-.033-.07h0a.122.122,0,0,0-.014-.033s0,.014.009.019c-.014-.037-.056-.135-.051-.135-.1-.247-.187-.5-.261-.761-.07-.233-.126-.472-.173-.71-.028-.135-.051-.271-.07-.4a.2.2,0,0,0,0-.023c.009.117-.033-.205,0,0v-.014c-.009-.084-.019-.163-.028-.247a9.36,9.36,0,0,1-.014-1.447l.028-.322c0-.009,0-.023,0-.033a.309.309,0,0,1,0-.065c0-.009,0-.019,0-.028.033-.2.065-.4.112-.6a8.414,8.414,0,0,1,.355-1.167c.014-.037.033-.079.047-.121v-.028a.383.383,0,0,1-.023.047.29.29,0,0,0,.023-.051V458.8c0-.051.023-.07.023-.042.009-.023.023-.042.033-.065a8.387,8.387,0,0,1,.439-.836c.163-.271.341-.532.528-.789-.075.084.014-.028.023-.037a.357.357,0,0,1-.019.033.065.065,0,0,0,.014-.019l.037-.047c.033-.042.07-.084.1-.126.107-.126.215-.247.327-.364.2-.205.4-.406.616-.593,0,0,.014-.009.019-.014.07-.061.145-.126.219-.187,0,0,0,0-.009,0s.009-.009.014-.014h0a.345.345,0,0,0,.028-.023c.009-.009.019-.014.028-.023l0,0c.014-.014.023-.023.033-.023l0,0a8.222,8.222,0,0,1,1.032-.658c.163-.089.327-.173.495-.252l.1-.042.033-.019h0a1.39,1.39,0,0,1,.275-.1,8.394,8.394,0,0,1,1.2-.35c.168-.037.336-.07.509-.093h0a.4.4,0,0,1,.1-.019h.019a.287.287,0,0,0,.07,0l.322-.028a9.027,9.027,0,0,1,1.508.028l.112.014h.042l.4.07c.266.051.528.121.789.2.243.075.486.159.719.252a.225.225,0,0,0,.033.014s0,0,.009,0a.138.138,0,0,1,.037.019.014.014,0,0,1,.009,0s.009,0,.014,0h0a.017.017,0,0,0,.014,0c.023.009.047.019.065.028.145.065.285.135.43.21.061.033.121.065.177.1a9.5,9.5,0,0,1,.9.574l.107.079a.1.1,0,0,0,.023.019c.079.065.154.126.229.191.177.154.346.313.514.476.14.14.275.289.406.439.075.084.14.173.215.257a.065.065,0,0,1,.014.019l-.037-.051c.121.135.075.089.037.051a.95.95,0,0,0,.084.107,8.377,8.377,0,0,1,.7,1.139c.07.14.121.322.2.467a.3.3,0,0,1,.047.075l0,.009s0,0,0-.009v0c.019.051.042.107.061.159q.063.161.112.322a8.709,8.709,0,0,1,.327,1.335.626.626,0,0,0,.023.14.059.059,0,0,0,0-.028.2.2,0,0,0,0,.023c.014.1.023.21.033.318.019.252.028.49.028.728S110.24,462.286,110.226,462.506Zm-3.59-1.587h-3.259v-3.264a.934.934,0,0,0-1.868,0v3.264H98.245a.934.934,0,1,0,0,1.868h3.264v3.259a.934.934,0,1,0,1.868,0v-3.259h3.259a.934.934,0,0,0,0-1.868Z" transform="translate(-70.559 -437.191)" fill="#fff"/>
  <path id="Path_224" data-name="Path 224" d="M173.019,530.212a.1.1,0,0,1-.023.014c-.574.369-1.167.71-1.746,1.065q-1.786,1.085-3.567,2.176l-4.123,2.512-3.422,2.087c-.472.289-.943.574-1.415.864a.934.934,0,0,1-.943,0l-.023-.014c-.593-.346-1.158-.728-1.737-1.093q-1.786-1.121-3.572-2.246-2.066-1.3-4.132-2.6-1.7-1.072-3.413-2.148c-.476-.294-.948-.593-1.424-.892a.963.963,0,0,1-.336-1.279.942.942,0,0,1,1.279-.336c.009,0,.014.009.023.014.593.346,1.158.728,1.737,1.093q1.786,1.12,3.572,2.246,2.066,1.3,4.132,2.6c1.135.714,2.274,1.433,3.413,2.148.317.2.63.392.948.593.43-.266.873-.514,1.3-.78q1.786-1.086,3.567-2.176l4.123-2.512,3.422-2.087c.472-.289.943-.574,1.415-.864a.935.935,0,0,1,.943,1.615Z" transform="translate(-139.819 -524.17)" fill="#fff"/>
</svg>
