<svg id="Tracked_Articulated_report" data-name="Tracked &amp; Articulated report" xmlns="http://www.w3.org/2000/svg" width="45.728" height="21.073" viewBox="0 0 45.728 21.073">
  <g id="Group_510" data-name="Group 510" transform="translate(0 12.106)">
    <path id="Path_336" data-name="Path 336" d="M-2733.222,561.372a4.489,4.489,0,0,1-4.484-4.483,4.489,4.489,0,0,1,4.484-4.483,4.489,4.489,0,0,1,4.484,4.483A4.489,4.489,0,0,1-2733.222,561.372Zm0-7.066a2.585,2.585,0,0,0-2.582,2.582,2.585,2.585,0,0,0,2.582,2.582,2.585,2.585,0,0,0,2.583-2.582A2.585,2.585,0,0,0-2733.222,554.306Z" transform="translate(2737.705 -552.405)" fill="#fff"/>
  </g>
  <g id="Group_511" data-name="Group 511" transform="translate(13.402 1.339)">
    <path id="Path_337" data-name="Path 337" d="M-2408.957,300.863a4.488,4.488,0,0,1-4.483-4.483,4.488,4.488,0,0,1,4.483-4.483,4.488,4.488,0,0,1,4.483,4.483A4.488,4.488,0,0,1-2408.957,300.863Zm0-7.066a2.585,2.585,0,0,0-2.582,2.582,2.585,2.585,0,0,0,2.582,2.582,2.585,2.585,0,0,0,2.583-2.582A2.585,2.585,0,0,0-2408.957,293.8Z" transform="translate(2413.44 -291.896)" fill="#fff"/>
  </g>
  <g id="Group_512" data-name="Group 512" transform="translate(27.213 9.894)">
    <path id="Path_338" data-name="Path 338" d="M-2074.772,507.839a4.489,4.489,0,0,1-4.484-4.483,4.489,4.489,0,0,1,4.484-4.483,4.488,4.488,0,0,1,4.483,4.483A4.488,4.488,0,0,1-2074.772,507.839Zm0-7.066a2.585,2.585,0,0,0-2.582,2.582,2.585,2.585,0,0,0,2.582,2.582,2.585,2.585,0,0,0,2.582-2.582A2.585,2.585,0,0,0-2074.772,500.773Z" transform="translate(2079.256 -498.872)" fill="#fff"/>
  </g>
  <g id="Group_513" data-name="Group 513" transform="translate(6.628 7.289)">
    <rect id="Rectangle_55" data-name="Rectangle 55" width="10.126" height="1.901" transform="translate(0 6.328) rotate(-38.676)" fill="#fff"/>
  </g>
  <g id="Group_514" data-name="Group 514" transform="translate(20.388 6.875)">
    <rect id="Rectangle_56" data-name="Rectangle 56" width="1.901" height="9.18" transform="matrix(0.527, -0.85, 0.85, 0.527, 0, 1.616)" fill="#fff"/>
  </g>
  <g id="Group_515" data-name="Group 515" transform="translate(34.279 0)">
    <path id="Path_339" data-name="Path 339" d="M-1897.8,270.068a.951.951,0,0,1-.946-.869l-.669-7.811h-7.932a.95.95,0,0,1-.95-.951.95.95,0,0,1,.95-.951h8.8a.951.951,0,0,1,.947.869l.744,8.68a.95.95,0,0,1-.866,1.028C-1897.742,270.067-1897.769,270.068-1897.8,270.068Z" transform="translate(1908.294 -259.487)" fill="#fff"/>
  </g>
  <g id="Group_516" data-name="Group 516" transform="translate(33.133 0)">
    <path id="Path_340" data-name="Path 340" d="M-1935.076,272.214a.947.947,0,0,1-.642-.25.951.951,0,0,1-.059-1.343l9.918-10.822a.951.951,0,0,1,1.343-.059.951.951,0,0,1,.059,1.343l-9.918,10.822A.948.948,0,0,1-1935.076,272.214Z" transform="translate(1936.026 -259.491)" fill="#fff"/>
  </g>
</svg>
