<svg id="Vocabulary" xmlns="http://www.w3.org/2000/svg" width="87.894" height="87.894" viewBox="0 0 87.894 87.894">
  <g id="Group_768" data-name="Group 768" transform="translate(0 0)">
    <path id="Path_1030" data-name="Path 1030" d="M33.3,7.565,33.112,7H26.834l-.188.565L8,57.225h6.718l4.7-12.556H40.527l4.7,12.556h6.718ZM21.768,38.391,29.973,16.48l8.205,21.911Z" transform="translate(35.947 30.669)" fill="#e8ba38"/>
    <path id="Path_1031" data-name="Path 1031" d="M44.947,13.556H57.5V7.278H32.391V1H26.112V7.278H1v6.278H38.669c0,10.076-5.7,19.607-12.556,27.473-5.368-6.171-10.1-13.423-11.834-21.195H7.912C9.72,29.5,15.452,38.311,21.843,45.593A119.7,119.7,0,0,1,2.507,61.1l3.258,5.368A120.516,120.516,0,0,0,26.182,50.227a119.378,119.378,0,0,0,10.547,9.361L40.6,54.646a114.145,114.145,0,0,1-10.152-8.984C38.273,36.779,44.947,25.692,44.947,13.556Z" transform="translate(-1 -1)" fill="#e8ba38"/>
  </g>
</svg>
